<svg xmlns="http://www.w3.org/2000/svg" xmlns:xlink="http://www.w3.org/1999/xlink" viewBox="0 0 326.86 306.61"><defs><style>.cls-1{isolation:isolate;}.cls-2{fill:url(#ÕÓ_È_Ó·_ÁÂ_ËÂÌÚ_1);}.cls-3,.cls-5{fill:#fbd69e;}.cls-3,.cls-4{mix-blend-mode:multiply;}.cls-6{fill:url(#radial-gradient);}.cls-7{fill:url(#radial-gradient-2);}.cls-8{fill:#87594a;}.cls-9{fill:#fff;}</style><radialGradient id="ÕÓ_È_Ó·_ÁÂ_ËÂÌÚ_1" cx="667.88" cy="326.95" r="76.65" gradientTransform="translate(-1172.32 -526.46) scale(2)" gradientUnits="userSpaceOnUse"><stop offset="0" stop-color="#fddb35"/><stop offset="0.48" stop-color="#fdd934"/><stop offset="0.66" stop-color="#fcd232"/><stop offset="0.78" stop-color="#fbc72e"/><stop offset="0.88" stop-color="#fab629"/><stop offset="0.96" stop-color="#f8a022"/><stop offset="1" stop-color="#f7941e"/></radialGradient><radialGradient id="radial-gradient" cx="710.42" cy="308.73" r="39.37" gradientTransform="translate(-1172.32 -526.46) scale(2)" gradientUnits="userSpaceOnUse"><stop offset="0.01" stop-color="#fbec26"/><stop offset="0.36" stop-color="#fbea26"/><stop offset="0.54" stop-color="#fbe225"/><stop offset="0.67" stop-color="#fad524"/><stop offset="0.79" stop-color="#f9c223"/><stop offset="0.89" stop-color="#f8aa21"/><stop offset="0.98" stop-color="#f78d1f"/><stop offset="1" stop-color="#f7851e"/></radialGradient><radialGradient id="radial-gradient-2" cx="2665.31" cy="308.73" r="39.37" gradientTransform="matrix(-2, 0, 0, 2, 5408.96, -526.46)" xlink:href="#radial-gradient"/></defs><title>Asset 4</title><g class="cls-1"><g id="Layer_2" data-name="Layer 2"><g id="_ÎÓÈ_1" data-name="—ÎÓÈ_1"><path class="cls-2" d="M316.74,153.3A153.31,153.31,0,1,1,163.44,0,153.29,153.29,0,0,1,316.74,153.3Z"/><path class="cls-3" d="M316.76,153.31A153.33,153.33,0,0,1,73.59,277.53,163.83,163.83,0,0,0,313.26,132.36c0-4.92-.21-9.81-.66-14.63A153.32,153.32,0,0,1,316.76,153.31Z"/><g class="cls-4"><path class="cls-5" d="M323.46,96.08l-38.8,25.45-1,45.17a7.55,7.55,0,0,1-8.91,8.46h-.09a7.38,7.38,0,0,1-3.28-1.53l-36.19-29L190.76,158a7.51,7.51,0,0,1-3.61.18,7.53,7.53,0,0,1-5.61-10.07L198,104.67,171.53,66.54a7.54,7.54,0,0,1,6.56-11.83l46.34,2.21L252.52,20a7.55,7.55,0,0,1,13.28,2.58L278,67.34l43.79,15.31a7.54,7.54,0,0,1,1.65,13.43Z"/><path class="cls-5" d="M3.4,96.08l38.8,25.45,1,45.17a7.55,7.55,0,0,0,8.91,8.46h.09a7.47,7.47,0,0,0,3.29-1.53l36.18-29L136.1,158a7.54,7.54,0,0,0,9.22-9.89L128.9,104.67l26.43-38.13a7.54,7.54,0,0,0-6.56-11.83l-46.34,2.21L74.34,20a7.55,7.55,0,0,0-13.28,2.58L48.85,67.34,5.05,82.65A7.55,7.55,0,0,0,3.4,96.08Z"/></g><path class="cls-6" d="M323.46,90.9l-38.8,25.45-1,45.18a7.56,7.56,0,0,1-8.91,8.46l-.09,0a7.48,7.48,0,0,1-3.28-1.52l-36.19-29-44.43,13.36a7.55,7.55,0,0,1-7.69-2.08,7.56,7.56,0,0,1-1.53-7.82L198,99.49,171.53,61.36a7.55,7.55,0,0,1,6.56-11.83l46.34,2.22,28.09-36.92a7.55,7.55,0,0,1,13.28,2.58L278,62.17l43.79,15.31a7.54,7.54,0,0,1,1.65,13.42Z"/><path class="cls-7" d="M3.4,90.9l38.8,25.45,1,45.18A7.56,7.56,0,0,0,52.11,170l.09,0a7.56,7.56,0,0,0,3.29-1.52l36.18-29,44.43,13.36a7.55,7.55,0,0,0,7.69-2.08,7.56,7.56,0,0,0,1.53-7.82L128.9,99.49l26.43-38.13a7.54,7.54,0,0,0-6.56-11.83l-46.34,2.22L74.34,14.83a7.55,7.55,0,0,0-13.28,2.58L48.85,62.17,5.05,77.48A7.54,7.54,0,0,0,3.4,90.9Z"/><path class="cls-8" d="M261.87,193.38a96.1,96.1,0,0,1-6.12,25.2A98,98,0,0,1,164.41,281h-2A97.89,97.89,0,0,1,65,193.38a5.9,5.9,0,0,1,8.1-6.07c31.67,12.5,81.69,13.88,90.32,13.88s58.68-1.38,90.34-13.88A5.91,5.91,0,0,1,261.87,193.38Z"/><path class="cls-9" d="M261.86,193.39a96.38,96.38,0,0,1-6.11,25.2C230,229.55,198.71,236,165,236H161.8c-33.66,0-64.91-6.42-90.68-17.36A98.37,98.37,0,0,1,65,193.39a5.93,5.93,0,0,1,8.13-6.08c31.63,12.49,81.67,13.89,90.31,13.89s58.67-1.4,90.33-13.89A5.9,5.9,0,0,1,261.86,193.39Z"/><path class="cls-8" d="M73.1,192c31.67,12.5,81.69,13.88,90.32,13.88s58.68-1.38,90.34-13.88a5.9,5.9,0,0,1,7.8,3.62c.09-.74.23-1.47.31-2.21a5.91,5.91,0,0,0-8.11-6.07c-31.66,12.5-81.7,13.88-90.34,13.88s-58.65-1.38-90.32-13.88a5.9,5.9,0,0,0-8.1,6.07c.08.74.21,1.47.31,2.2A5.89,5.89,0,0,1,73.1,192Z"/><path class="cls-9" d="M255.75,218.59A98,98,0,0,1,164.41,281h-2a98,98,0,0,1-91.32-62.4c25.77,10.94,57,17.36,90.68,17.36H165C198.71,236,230,229.55,255.75,218.59Z"/><path class="cls-8" d="M161.8,241.14H165c32.51,0,62.77-6,88-16.27,1-2.06,1.88-4.15,2.71-6.28C230,229.55,198.71,236,165,236H161.8c-33.66,0-64.91-6.42-90.68-17.36.84,2.13,1.75,4.23,2.72,6.28C99.07,235.15,129.31,241.14,161.8,241.14Z"/></g></g></g></svg>