<svg xmlns="http://www.w3.org/2000/svg" xmlns:xlink="http://www.w3.org/1999/xlink" viewBox="0 0 306.64 306.61"><defs><style>.cls-1{isolation:isolate;}.cls-2{fill:url(#radial-gradient);}.cls-3{fill:#fbd69e;mix-blend-mode:multiply;}.cls-4{fill:#87594a;}.cls-5{fill:#fff;}</style><radialGradient id="radial-gradient" cx="-1157.85" cy="-46.75" r="76.65" gradientTransform="translate(2469.87 224.38) scale(2)" gradientUnits="userSpaceOnUse"><stop offset="0" stop-color="#fddb35"/><stop offset="0.48" stop-color="#fdd934"/><stop offset="0.66" stop-color="#fcd232"/><stop offset="0.78" stop-color="#fbc72e"/><stop offset="0.88" stop-color="#fab629"/><stop offset="0.96" stop-color="#f8a022"/><stop offset="1" stop-color="#f7941e"/></radialGradient></defs><title>Asset 6</title><g class="cls-1"><g id="Layer_2" data-name="Layer 2"><g id="_ÎÓÈ_1" data-name="—ÎÓÈ_1"><path class="cls-2" d="M306.63,153.3A153.32,153.32,0,1,1,153.33,0,153.29,153.29,0,0,1,306.63,153.3Z"/><path class="cls-3" d="M306.64,153.31A153.33,153.33,0,0,1,63.47,277.53,163.83,163.83,0,0,0,303.14,132.36c0-4.92-.21-9.81-.66-14.63A153.32,153.32,0,0,1,306.64,153.31Z"/><ellipse class="cls-4" cx="100.38" cy="119.67" rx="28.91" ry="29.89"/><path class="cls-5" d="M111.25,108.08a10.87,10.87,0,1,1-10.87-10.86A10.87,10.87,0,0,1,111.25,108.08Z"/><path class="cls-4" d="M235.17,119.67c0,16.51-12.95,29.89-28.91,29.89s-28.9-13.38-28.9-29.89,12.94-29.9,28.9-29.9S235.17,103.16,235.17,119.67Z"/><path class="cls-5" d="M217.12,108.08a10.86,10.86,0,1,1-10.86-10.86A10.86,10.86,0,0,1,217.12,108.08Z"/><rect class="cls-4" x="83.69" y="205.83" width="139.26" height="21.13" rx="10.46"/></g></g></g></svg>