<svg xmlns="http://www.w3.org/2000/svg" xmlns:xlink="http://www.w3.org/1999/xlink" viewBox="0 0 306.63 306.63"><defs><style>.cls-1{isolation:isolate;}.cls-2{fill:url(#ÕÓ_È_Ó·_ÁÂ_ËÂÌÚ_1);}.cls-3{fill:#fbd69e;mix-blend-mode:multiply;}.cls-4{fill:#fff;}.cls-5{fill:#87594a;}.cls-6{fill:#ee6571;}</style><radialGradient id="ÕÓ_È_Ó·_ÁÂ_ËÂÌÚ_1" cx="455.97" cy="140.21" r="76.65" gradientTransform="translate(450.96 -760.85) rotate(89.58) scale(2)" gradientUnits="userSpaceOnUse"><stop offset="0" stop-color="#fddb35"/><stop offset="0.48" stop-color="#fdd934"/><stop offset="0.66" stop-color="#fcd232"/><stop offset="0.78" stop-color="#fbc72e"/><stop offset="0.88" stop-color="#fab629"/><stop offset="0.96" stop-color="#f8a022"/><stop offset="1" stop-color="#f7941e"/></radialGradient></defs><title>Asset 5</title><g class="cls-1"><g id="Layer_2" data-name="Layer 2"><g id="_ÎÓÈ_1" data-name="—ÎÓÈ_1"><ellipse class="cls-2" cx="153.31" cy="153.31" rx="153.31" ry="153.31" transform="translate(-1.12 305.49) rotate(-89.58)"/><path class="cls-3" d="M306.63,153.32A153.32,153.32,0,0,1,63.46,277.54,163.83,163.83,0,0,0,303.13,132.37c0-4.92-.21-9.81-.66-14.63A153.38,153.38,0,0,1,306.63,153.32Z"/><ellipse class="cls-4" cx="93.05" cy="144.55" rx="50.5" ry="52.22"/><path class="cls-5" d="M112,144.55a19,19,0,1,1-19-19A19,19,0,0,1,112,144.55Z"/><ellipse class="cls-4" cx="213.57" cy="144.55" rx="50.5" ry="52.22"/><path class="cls-5" d="M194.6,144.55a19,19,0,1,0,19-19A19,19,0,0,0,194.6,144.55Z"/><path class="cls-3" d="M63,77.28A39.75,39.75,0,0,1,94.86,70.2c4.19.83,8.91-.66,10.69-4.39l.06-.13c1.79-3.7-1.54-9-7.68-10.23a54.83,54.83,0,0,0-44,9.77c-5,3.76-5.81,9.93-2.62,12.52l.11.1C54.6,80.46,59.51,79.81,63,77.28Z"/><path class="cls-3" d="M243.67,77.28a39.73,39.73,0,0,0-31.9-7.08c-4.2.83-8.91-.66-10.7-4.39l-.06-.13c-1.79-3.7,1.55-9,7.68-10.23a54.82,54.82,0,0,1,44,9.77c5,3.76,5.82,9.93,2.63,12.52l-.11.1C252,80.46,247.12,79.81,243.67,77.28Z"/><path class="cls-5" d="M209.7,255.56c-6.14,7.86-18,10.74-29.95,12.57l-1.24.18-.8.12-4.55.63a175,175,0,0,1-17.79,1.1h-4.11a175.18,175.18,0,0,1-17.8-1.1l-4.53-.63-.82-.12-1.23-.18c-12-1.83-23.82-4.71-29.95-12.57-2.94-4-3.49-8.75-1.35-13.91a21.79,21.79,0,0,1,3.49-6c8.55-10.75,29-21.14,54.24-21,25.28-.16,45.69,10.23,54.24,21a21.84,21.84,0,0,1,3.5,6C213.19,246.81,212.63,251.57,209.7,255.56Z"/><path class="cls-6" d="M179.75,268.13l-1.24.18-.8.12-4.55.63a175,175,0,0,1-17.79,1.1h-4.11a175.18,175.18,0,0,1-17.8-1.1l-4.53-.63-.82-.12-1.23-.18c5.83-5.92,15.49-9.78,26.43-9.78S173.92,262.21,179.75,268.13Z"/><path class="cls-4" d="M207.55,235.67H99.07c8.55-10.75,29-21.14,54.24-21C178.59,214.53,199,224.92,207.55,235.67Z"/></g></g></g></svg>