<svg xmlns="http://www.w3.org/2000/svg" xmlns:xlink="http://www.w3.org/1999/xlink" viewBox="0 0 306.63 306.63"><defs><style>.cls-1{isolation:isolate;}.cls-2{fill:url(#ÕÓ_È_Ó·_ÁÂ_ËÂÌÚ_1);}.cls-3{fill:#fbd69e;mix-blend-mode:multiply;}.cls-4{fill:#87594a;}</style><radialGradient id="ÕÓ_È_Ó·_ÁÂ_ËÂÌÚ_1" cx="-148.95" cy="-234.46" r="76.65" gradientTransform="translate(-291.72 454.25) rotate(89.72) scale(2)" gradientUnits="userSpaceOnUse"><stop offset="0" stop-color="#fddb35"/><stop offset="0.48" stop-color="#fdd934"/><stop offset="0.66" stop-color="#fcd232"/><stop offset="0.78" stop-color="#fbc72e"/><stop offset="0.88" stop-color="#fab629"/><stop offset="0.96" stop-color="#f8a022"/><stop offset="1" stop-color="#f7941e"/></radialGradient></defs><title>Asset 8</title><g class="cls-1"><g id="Layer_2" data-name="Layer 2"><g id="_ÎÓÈ_1" data-name="—ÎÓÈ_1"><ellipse class="cls-2" cx="153.31" cy="153.31" rx="153.31" ry="153.31" transform="translate(-0.74 305.87) rotate(-89.72)"/><path class="cls-3" d="M306.63,153.32A153.32,153.32,0,0,1,63.46,277.54,163.83,163.83,0,0,0,303.13,132.37c0-4.92-.21-9.81-.66-14.63A153.38,153.38,0,0,1,306.63,153.32Z"/><path class="cls-4" d="M63.69,147.94a13.46,13.46,0,0,1,8.14,3.2C78.7,156.84,89,156.83,91,157s12.16,2.07,20-2.29a13.51,13.51,0,0,1,8.59-1.66c2.92.45,5.59,1.93,5.44,5.61a7,7,0,0,1-2,4.5A41.24,41.24,0,0,1,89.74,175.7l-.86-.08a41.23,41.23,0,0,1-30.44-18.41,6.86,6.86,0,0,1-1.15-4.81C57.84,148.8,60.75,147.85,63.69,147.94Z"/><path class="cls-4" d="M242.94,147.94a13.49,13.49,0,0,0-8.15,3.2c-6.86,5.7-17.17,5.69-19.19,5.88s-12.15,2.07-19.95-2.29a13.51,13.51,0,0,0-8.59-1.66c-2.91.45-5.59,1.93-5.44,5.61a7,7,0,0,0,2,4.5,41.24,41.24,0,0,0,33.25,12.52l.87-.08a41.21,41.21,0,0,0,30.43-18.41,6.81,6.81,0,0,0,1.15-4.81C248.78,148.8,245.88,147.85,242.94,147.94Z"/><path class="cls-3" d="M79.66,93.26a39.75,39.75,0,0,1-31.11,10c-4.25-.44-8.81,1.49-10.24,5.36a.78.78,0,0,1-.05.14c-1.44,3.85,2.37,8.77,8.6,9.47a54.8,54.8,0,0,0,42.91-13.81c4.65-4.21,4.87-10.43,1.46-12.71l-.13-.09C87.68,89.32,82.86,90.42,79.66,93.26Z"/><path class="cls-3" d="M227,93.26a39.75,39.75,0,0,0,31.11,10c4.26-.44,8.81,1.49,10.24,5.36l.05.14c1.44,3.85-2.36,8.77-8.6,9.47a54.78,54.78,0,0,1-42.9-13.81C212.2,100.22,212,94,215.4,91.72l.12-.09C218.94,89.32,223.77,90.42,227,93.26Z"/><rect class="cls-4" x="115.72" y="228.83" width="75.18" height="20.53" rx="10.16"/></g></g></g></svg>