<svg xmlns="http://www.w3.org/2000/svg" xmlns:xlink="http://www.w3.org/1999/xlink" viewBox="0 0 306.63 306.63"><defs><style>.cls-1{isolation:isolate;}.cls-2{fill:url(#ÕÓ_È_Ó·_ÁÂ_ËÂÌÚ_1);}.cls-3{fill:#fbd69e;mix-blend-mode:multiply;}.cls-4{fill:#87594a;}.cls-5{fill:#fff;}</style><radialGradient id="ÕÓ_È_Ó·_ÁÂ_ËÂÌÚ_1" cx="1263.55" cy="328.68" r="76.65" gradientTransform="translate(820.88 -2376.18) rotate(89.72) scale(2)" gradientUnits="userSpaceOnUse"><stop offset="0" stop-color="#fddb35"/><stop offset="0.48" stop-color="#fdd934"/><stop offset="0.66" stop-color="#fcd232"/><stop offset="0.78" stop-color="#fbc72e"/><stop offset="0.88" stop-color="#fab629"/><stop offset="0.96" stop-color="#f8a022"/><stop offset="1" stop-color="#f7941e"/></radialGradient></defs><title>Asset 11</title><g class="cls-1"><g id="Layer_2" data-name="Layer 2"><g id="_ÎÓÈ_1" data-name="—ÎÓÈ_1"><ellipse class="cls-2" cx="153.31" cy="153.31" rx="153.31" ry="153.31" transform="translate(-0.73 305.88) rotate(-89.72)"/><path class="cls-3" d="M306.63,153.32A153.32,153.32,0,0,1,63.46,277.54,163.83,163.83,0,0,0,303.13,132.37c0-4.92-.21-9.81-.66-14.63A153.38,153.38,0,0,1,306.63,153.32Z"/><path class="cls-4" d="M153.31,218.8c-24.87,0-47-7.59-61.14-19.38a2.08,2.08,0,0,0-3.08,2.71c11.06,17.35,35.65,29.41,64.22,29.41s53.16-12.06,64.22-29.41a2.07,2.07,0,0,0-3.07-2.71C200.31,211.21,178.19,218.8,153.31,218.8Z"/><ellipse class="cls-4" cx="95.2" cy="125.13" rx="28.91" ry="29.89"/><path class="cls-5" d="M106.06,113.55A10.86,10.86,0,1,1,95.2,102.69,10.86,10.86,0,0,1,106.06,113.55Z"/><path class="cls-4" d="M240.33,125.13c0,16.51-12.94,29.9-28.91,29.9s-28.9-13.39-28.9-29.9,12.94-29.89,28.9-29.89S240.33,108.63,240.33,125.13Z"/><path class="cls-5" d="M222.28,113.55a10.86,10.86,0,1,1-10.86-10.86A10.86,10.86,0,0,1,222.28,113.55Z"/></g></g></g></svg>