<svg id="Layer_1" data-name="Layer 1" xmlns="http://www.w3.org/2000/svg" viewBox="0 0 500 500"><defs><style>.cls-1,.cls-3{fill:#fff;}.cls-1,.cls-2{stroke:#fff;}.cls-1{stroke-miterlimit:10;stroke-width:2.91px;fill-rule:evenodd;}.cls-2{fill:none;stroke-linecap:round;stroke-linejoin:round;stroke-width:5px;}</style></defs><title>logo</title><path class="cls-1" d="M243.93,391.08a100.85,100.85,0,0,1-47.39-.27c-23.37-5.74-44-19.38-59.69-37.47A139,139,0,0,1,105,284.1c-5.52-34.62,1.84-69.73,17.65-100.76l.08-.16a5.36,5.36,0,0,1,6.14-2.8l.18,0a176.45,176.45,0,0,1,34,12.37h0A206.22,206.22,0,0,1,220.14,234c14.56,14.82,29.67,35,37.61,56.15C265.69,269,280.8,248.78,295.37,234a208,208,0,0,1,18.08-16.39q1.47,6.3,2.41,12.7-6.47,5.53-12.43,11.61C292,253.56,281.51,267.08,274,281.64c-5.69,11-10.54,24.17-10.54,36.67a5.44,5.44,0,0,1-5.42,5.42h-.47a5.43,5.43,0,0,1-5.42-5.42c0-12.5-4.85-25.71-10.55-36.67-15.59-30-43.86-56.77-72.94-73.2l-.32-.17-.35-.2-.5-.28-.3-.17-.62-.34-.11-.06a170,170,0,0,0-35.7-14.67c-13.36,27.87-19.43,59-14.54,89.77a127.85,127.85,0,0,0,29.22,63.61c14.15,16.32,32.76,28.72,53.85,33.9a89.61,89.61,0,0,0,29.67,2.26,117.64,117.64,0,0,0,15,9Zm-41.28-50c-14.44-22-22.61-48-24.8-74.15a174.75,174.75,0,0,1,1.35-40.62c3.55,2.5,7,5.13,10.37,7.85a163.46,163.46,0,0,0-.46,31.82c2,24.24,9.59,48.5,23,68.89,14.33,21.8,34.82,38.32,60.61,44.8h0c36.72,9.24,72.93-5.54,97.42-33.78a127.75,127.75,0,0,0,29.21-63.61c4.9-30.75-1.17-61.9-14.54-89.77a172.14,172.14,0,0,0-41.85,18.2q-1.33-5.72-3-11.33a181.88,181.88,0,0,1,46.54-19l.18,0a5.37,5.37,0,0,1,6.14,2.79l.08.17c15.86,31,23.17,66.13,17.65,100.76a139.06,139.06,0,0,1-31.83,69.24c-31.64,36.48-79.78,51.27-125,31.82-21.23-9.13-38.45-24.89-51-44ZM269,368.76c13.87-8.4,25.41-20.18,34.4-33.85,13.39-20.39,20.95-44.65,23-68.89a162.93,162.93,0,0,0-2-42.64h0q-1.11-6.1-2.68-12.11h0a157.39,157.39,0,0,0-6.5-19.49h0l-.37-.9h0c-.25-.6-.51-1.2-.76-1.79h0l0-.08c-.16-.37-.33-.75-.49-1.13l-.08-.17,0-.07,0-.07-.32-.73,0-.07,0-.07-.23-.5h0l0-.07,0-.07,0-.08,0-.07,0-.07,0-.07,0-.07,0-.07,0-.08c-.13-.28-.26-.57-.4-.85l0-.07,0-.08,0-.07c-12.09-25.77-30.75-47.09-54.21-63.23-24.84,17.1-44.29,40-56.28,67.84-1.77,4.12-3.37,8.32-4.78,12.57q-4.77-3.36-9.73-6.47,1.89-5.35,4.13-10.57c13.35-31,35.38-56.39,63.56-74.9a5.86,5.86,0,0,1,6.21,0c28.13,18.48,50.14,43.8,63.5,74.76l.06.14a171.89,171.89,0,0,1,13.82,65.13h0a170.72,170.72,0,0,1-.58,17.22c-2.19,26.12-10.37,52.17-24.8,74.15A124,124,0,0,1,284,372.24a83.61,83.61,0,0,1-15-3.48Z"/><path class="cls-2" d="M301.24,408.72c12.13-.69,44.42-4.17,74.44-28.35a129.62,129.62,0,0,0,37-48.29"/><path class="cls-2" d="M92.27,220.43a161.47,161.47,0,0,0-3.84,58.19,163.42,163.42,0,0,0,28.77,74.8"/><path class="cls-2" d="M302.93,128.91a124.37,124.37,0,0,1,35.34,55.55"/><path class="cls-2" d="M338.27,184.46a126.4,126.4,0,0,1,28.63-12"/><circle class="cls-3" cx="293.39" cy="118.26" r="3.69"/><circle class="cls-3" cx="278.23" cy="105.65" r="3.69"/><circle class="cls-3" cx="259.24" cy="94.97" r="3.69"/></svg>