<?xml version="1.0" encoding="utf-8"?>
<!-- Generator: Adobe Illustrator 23.1.0, SVG Export Plug-In . SVG Version: 6.00 Build 0)  -->
<svg version="1.1" id="Layer_1" xmlns="http://www.w3.org/2000/svg" xmlns:xlink="http://www.w3.org/1999/xlink" x="0px" y="0px"
	 viewBox="0 0 500 500" style="enable-background:new 0 0 500 500;" xml:space="preserve">
<style type="text/css">
	.st0{fill-rule:evenodd;clip-rule:evenodd;fill:#020203;}
	.st1{fill:#EEEDED;stroke:#EEEDED;stroke-width:15;stroke-miterlimit:10;}
	.st2{fill-rule:evenodd;clip-rule:evenodd;fill:#EEEDED;}
	.st3{fill:#020203;}
	.st4{fill:#EEEDED;stroke:#020203;stroke-width:15;stroke-miterlimit:10;}
	.st5{fill:#EEEDED;}
	.st6{font-family:'Futura-Bold';}
	.st7{font-size:42.0149px;}
	.st8{letter-spacing:12.6;}
</style>
<rect x="-0.3" y="-0.3" class="st0" width="500" height="500"/>
<g>
	<g>
		<path class="st1" d="M221.8,303.7c52.2,35.6,123.3,22.4,158.7-29.5c35.4-51.9,21.8-122.9-30.5-158.5
			c-52.2-35.6-123.3-22.4-158.7,29.5C155.9,197.1,169.6,268.1,221.8,303.7z"/>
		<path class="st2" d="M321.4,394.3c-9.8,1.8-19.2-4.6-21.1-14.4l-0.6-3c-1.9-9.8,4.5-19.2,14.3-21c9.8-1.8,19.2,4.6,21.1,14.4
			l0.6,3C337.6,383.1,331.2,392.5,321.4,394.3z M440.2,315c-5.6,8.2-16.8,10.3-25,4.6l-1.1-0.8c-8.2-5.6-10.4-16.8-4.8-25
			s16.8-10.3,25-4.6l1.1,0.8C443.6,295.6,445.8,306.8,440.2,315z M162.6,125.6c-5.6,8.2-16.8,10.3-25.1,4.7l-1.1-0.8
			c-8.2-5.6-10.4-16.8-4.8-25c5.6-8.2,16.8-10.3,25.1-4.7l1.1,0.8C166,106.2,168.2,117.4,162.6,125.6z M257.8,63.6
			c-9.8,1.8-19.2-4.6-21.1-14.4l-0.6-3c-1.9-9.8,4.5-19.2,14.3-21c9.8-1.8,19.2,4.6,21.1,14.4l0.6,3C274,52.4,267.6,61.8,257.8,63.6
			z M432.2,182.6c-1.9-9.8,4.5-19.2,14.3-21l3-0.6c9.8-1.8,19.2,4.6,21.1,14.4c1.9,9.8-4.5,19.2-14.3,21l-3,0.6
			C443.5,198.8,434,192.4,432.2,182.6z M369.5,87.2c-8.2-5.6-10.4-16.8-4.8-25l0.8-1.1c5.6-8.2,16.8-10.3,25.1-4.7s10.4,16.8,4.8,25
			l-0.8,1.1C388.9,90.8,377.7,92.9,369.5,87.2z"/>
	</g>
	<g>
		<path class="st3" d="M313.7,131.3c-1.9-5.3-9.3-5.3-11.1,0l-6.4,18c-0.6,1.7-1.9,3-3.6,3.6l-18,6.4c-5.2,1.9-5.2,9.3,0,11.1
			l18,6.4c1.7,0.6,3,1.9,3.6,3.6l6.4,18c1.9,5.2,9.3,5.2,11.1,0l6.4-18c0.6-1.7,1.9-3,3.6-3.6l18-6.4c5.2-1.9,5.2-9.3,0-11.1
			l-18-6.4c-1.7-0.6-3-1.9-3.6-3.6L313.7,131.3z"/>
		<path class="st3" d="M244.4,190c1.3-3.6,6.4-3.6,7.7,0l3.5,9.9c0.4,1.2,1.3,2.1,2.5,2.5l9.9,3.5c3.6,1.3,3.6,6.4,0,7.7l-9.9,3.5
			c-1.2,0.4-2.1,1.3-2.5,2.5l-3.5,9.9c-1.3,3.6-6.4,3.6-7.7,0l-3.5-9.9c-0.4-1.2-1.3-2.1-2.5-2.5l-9.9-3.5c-3.6-1.3-3.6-6.4,0-7.7
			l9.9-3.5c1.2-0.4,2.1-1.3,2.5-2.5L244.4,190z"/>
		<path class="st3" d="M283.1,234c0.9-2.4,4.3-2.4,5.1,0l2.3,6.6c0.3,0.8,0.9,1.4,1.7,1.7l6.6,2.3c2.4,0.9,2.4,4.3,0,5.1l-6.6,2.3
			c-0.8,0.3-1.4,0.9-1.7,1.7l-2.3,6.6c-0.9,2.4-4.3,2.4-5.1,0l-2.3-6.6c-0.3-0.8-0.9-1.4-1.7-1.7l-6.6-2.3c-2.4-0.9-2.4-4.3,0-5.1
			l6.6-2.3c0.8-0.3,1.4-0.9,1.7-1.7L283.1,234z"/>
		<path class="st4" d="M199.9,151.8c2.3,4,1.9,9-1,12.6c-12.1,15.1-19.2,34-19.2,54.5c0,48.9,40.9,89.2,92.1,89.2
			c14,0,27.3-3,39.2-8.5c4.2-1.9,9.1-1.1,12.4,2.1s4.4,8,2.7,12.3c-18.5,46.5-64.9,79.3-118.9,79.3c-70.1,0-127.5-55.3-127.5-124.2
			c0-62.7,47.5-114.1,108.8-122.9C193.1,145.6,197.6,147.8,199.9,151.8z"/>
	</g>
</g>
<text transform="matrix(1.034 0 0 1 8.9849 454.1968)" class="st5 st6 st7 st8">OH MY CLOCK</text>
</svg>
