<svg id="Layer_1" data-name="Layer 1" xmlns="http://www.w3.org/2000/svg" viewBox="0 0 363.01 263.99"><defs><style>.cls-1{fill:#f6f6f6;}.cls-2{fill:#1d1d1b;}</style></defs><title>logo</title><path class="cls-1" d="M125.07,203.37a158.72,158.72,0,0,1,2.53-61.57c1.43-5.91,3.62-11.63,5.42-17.45,1.2-3.86,3.81-5.57,7.68-4.63,9.3,2.26,18.81,4,27.73,7.32,10.8,4,21.08,9.46,31.72,14.35,1.78-3.76,3.74-8.17,5.92-12.47a160.54,160.54,0,0,1,43.78-53.38c2.66-2.12,4.6-2,7.19.09a161.3,161.3,0,0,1,48.08,62.52c.55,1.25,1.12,2.49,1.76,3.91,4.78-2.59,9.39-5.25,14.14-7.63,13.32-6.67,27.15-11.87,41.91-14.36,8.06-1.37,9.06-.92,12,6.81,7.89,21,10,42.84,8.39,65.11-.27,3.71-.73,7.4-1.12,11.25,7.49,1.11,15,1.73,22.18,3.4a210.73,210.73,0,0,1,25,7.44c5.74,2.1,6,3.48,5.18,9.44-7.82,57.45-54,104.54-111.11,113.06-20.29,3-40.28,1.09-60-4.55-2.06-.59-4.35-.4-6.53-.47-.86,0-1.79.5-2.58.31-9.25-2.19-17.61,2.07-26.28,3.69C157.21,348.8,90.14,304.71,74.33,234.3c-.89-4-1.31-8.12-2.27-12.11-.84-3.48.66-5.68,3.49-6.95,4.64-2.09,9.29-4.48,14.2-5.55,10.81-2.36,21.79-4,32.69-5.89C123.17,203.67,123.9,203.56,125.07,203.37Zm128.2-118c-78.2,67.52-67.82,180.28.21,235.22C325.74,260.35,327.36,147.6,253.27,85.34ZM142,130.3C113,209.2,159.7,295.23,234.06,316.82Q169.55,245.09,196,152C182.29,142.25,160.73,133.6,142,130.3Zm168.77,21.56c17.72,62.49,4.81,117.35-39,166,41.71-14.89,72.07-41.12,89.57-81.09,15.28-34.9,15.93-70.57,3.71-106.62A150.91,150.91,0,0,0,310.72,151.86ZM225.78,325.92v-.75c-.41-.21-.81-.45-1.24-.62-50.16-20.09-82.67-55.92-96.48-108.35-.6-2.29-1.68-2.75-3.67-2.39-11,2-22.13,3.46-33,6.07-9.47,2.27-9.45,2.86-7.07,12.41C99.75,294,150.21,330,208.77,327.71,214.46,327.48,220.11,326.53,225.78,325.92Zm55.75-.12a14.42,14.42,0,0,0,1.48.44c18.09,3,36.12,2.69,53.68-2.68,48.8-14.93,76.48-48.89,87.2-97.88.53-2.41-.42-3.29-2.51-4a143.24,143.24,0,0,0-38.3-7.89c-2.79-.17-3.84.57-4.53,3.29-10.54,41.39-34.33,73.08-70.7,95.23C299.51,317.38,290.44,321.27,281.53,325.8Z" transform="translate(-71.83 -74.01)"/><path class="cls-1" d="M253.29,128.69c61.29,51.51,60,144.77.17,194.58C197.19,277.82,188.59,184.54,253.29,128.69Z" transform="translate(-71.83 -74.01)"/><circle class="cls-2" cx="183.45" cy="160.91" r="16.5"/><circle class="cls-2" cx="183.45" cy="193.91" r="12.5"/><circle class="cls-2" cx="183.45" cy="218.91" r="8.5"/><circle class="cls-2" cx="182.95" cy="236.41" r="4"/></svg>