<svg xmlns="http://www.w3.org/2000/svg" xmlns:xlink="http://www.w3.org/1999/xlink" viewBox="0 0 306.64 306.61"><defs><style>.cls-1{isolation:isolate;}.cls-2{fill:url(#ÕÓ_È_Ó·_ÁÂ_ËÂÌÚ_1);}.cls-3,.cls-7{fill:#fbd69e;}.cls-3,.cls-6{mix-blend-mode:multiply;}.cls-4{fill:#87594a;}.cls-5{fill:#fff;}.cls-8{fill:url(#linear-gradient);}</style><radialGradient id="ÕÓ_È_Ó·_ÁÂ_ËÂÌÚ_1" cx="1465.33" cy="516.38" r="76.65" gradientTransform="translate(-2776.49 -901.89) scale(2)" gradientUnits="userSpaceOnUse"><stop offset="0" stop-color="#fddb35"/><stop offset="0.48" stop-color="#fdd934"/><stop offset="0.66" stop-color="#fcd232"/><stop offset="0.78" stop-color="#fbc72e"/><stop offset="0.88" stop-color="#fab629"/><stop offset="0.96" stop-color="#f8a022"/><stop offset="1" stop-color="#f7941e"/></radialGradient><linearGradient id="linear-gradient" x1="26.96" y1="218.6" x2="99.99" y2="218.6" gradientUnits="userSpaceOnUse"><stop offset="0" stop-color="#2e92db"/><stop offset="0.04" stop-color="#2d99df"/><stop offset="0.2" stop-color="#2caded"/><stop offset="0.35" stop-color="#2abaf5"/><stop offset="0.5" stop-color="#2abef8"/><stop offset="0.65" stop-color="#2abaf5"/><stop offset="0.8" stop-color="#2caded"/><stop offset="0.96" stop-color="#2d98df"/><stop offset="1" stop-color="#2e92db"/></linearGradient></defs><title>Asset 1</title><g class="cls-1"><g id="Layer_2" data-name="Layer 2"><g id="_ÎÓÈ_1" data-name="—ÎÓÈ_1"><path class="cls-2" d="M306.63,153.3A153.32,153.32,0,1,1,153.33,0,153.29,153.29,0,0,1,306.63,153.3Z"/><path class="cls-3" d="M306.64,153.31A153.33,153.33,0,0,1,63.47,277.53,163.83,163.83,0,0,0,303.14,132.36c0-4.92-.21-9.81-.66-14.63A153.32,153.32,0,0,1,306.64,153.31Z"/><path class="cls-3" d="M96.05,78A39.76,39.76,0,0,1,65.61,89.91c-4.27-.19-8.7,2-9.89,6a1,1,0,0,0,0,.14c-1.2,3.93,2.9,8.61,9.16,8.93a54.81,54.81,0,0,0,42-16.42c4.39-4.48,4.22-10.7.68-12.77l-.13-.08C103.81,73.58,99.06,75,96.05,78Z"/><path class="cls-3" d="M210.6,78A39.76,39.76,0,0,0,241,89.91c4.27-.19,8.7,2,9.89,6a1,1,0,0,1,0,.14c1.21,3.93-2.89,8.61-9.16,8.93a54.83,54.83,0,0,1-42-16.42c-4.38-4.48-4.22-10.7-.67-12.77l.12-.08C202.84,73.58,207.59,75,210.6,78Z"/><ellipse class="cls-4" cx="106.85" cy="144.36" rx="25.57" ry="26.44"/><path class="cls-5" d="M116.46,134.11a9.61,9.61,0,1,1-9.61-9.61A9.61,9.61,0,0,1,116.46,134.11Z"/><ellipse class="cls-4" cx="199.8" cy="144.36" rx="25.57" ry="26.44"/><path class="cls-5" d="M190.19,134.11a9.61,9.61,0,1,0,9.61-9.61A9.61,9.61,0,0,0,190.19,134.11Z"/><g class="cls-6"><path class="cls-7" d="M87.23,267.93A38.81,38.81,0,0,1,63,277.16a153.57,153.57,0,0,1-36-37c-.11-12.78,5.76-28.25,22-46,7-7.4,11.27-17.82,13.09-22.92a1.21,1.21,0,0,1,2.25-.08c2.09,5,6.75,15.14,12.47,21.79C84.62,202,117.91,238.56,87.23,267.93Z"/></g><path class="cls-8" d="M49,189c7-7.41,11.28-17.83,13.1-22.94a1.19,1.19,0,0,1,2.23-.06c2.11,5,6.78,15.11,12.49,21.77,7.82,9.13,41.09,45.67,10.43,75-16.31,13.71-39.79,11.75-51.54-3.26S20.28,220.28,49,189Z"/><path class="cls-4" d="M153.31,254a267.39,267.39,0,0,1,33,2c13.79,1.72,19.6-17.15,7.15-23.33-11.2-5.56-25.09-8.85-40.14-8.85s-28.93,3.29-40.14,8.85c-12.44,6.18-6.63,25.05,7.15,23.33A267.63,267.63,0,0,1,153.31,254Z"/></g></g></g></svg>