<svg xmlns="http://www.w3.org/2000/svg" viewBox="0 0 54.51 50.88"><defs><style>.cls-1{fill:#c3b9de;}.cls-2{fill:#333;}.cls-3{fill:#fc6369;opacity:0.4;}.cls-4{fill:#fff;}</style></defs><title>Asset 12</title><g id="Layer_2" data-name="Layer 2"><g id="Layer_1-2" data-name="Layer 1"><g id="New_Symbol" data-name="New Symbol"><g id="New_Symbol_2" data-name="New Symbol 2"><rect class="cls-1" width="54.51" height="50.88"/><path class="cls-2" d="M32.69,38.5a1.2,1.2,0,0,1-.83-.33,6.74,6.74,0,0,0-4.35-1.74,6.52,6.52,0,0,0-4.85,1.73A1.23,1.23,0,0,1,21,36.38,9.09,9.09,0,0,1,27.6,34a9.21,9.21,0,0,1,5.93,2.39,1.23,1.23,0,0,1,.06,1.74A1.26,1.26,0,0,1,32.69,38.5Z"/><path class="cls-3" d="M10.94,16.8a.76.76,0,0,1-.5-1.34,11.26,11.26,0,0,1,6.25-2.64.75.75,0,0,1,.83.69.76.76,0,0,1-.69.83,9.76,9.76,0,0,0-5.4,2.28A.76.76,0,0,1,10.94,16.8Z"/><path class="cls-3" d="M43.57,16.8a.76.76,0,0,1-.49-.18,9.66,9.66,0,0,0-5.4-2.28.76.76,0,0,1,.14-1.52,11.2,11.2,0,0,1,6.25,2.64.76.76,0,0,1,.08,1.07A.74.74,0,0,1,43.57,16.8Z"/><path class="cls-4" d="M44.47,23.88A5.71,5.71,0,1,1,38.77,18,5.8,5.8,0,0,1,44.47,23.88Z"/><path class="cls-2" d="M41.2,23.88a2.44,2.44,0,1,1-2.43-2.53A2.48,2.48,0,0,1,41.2,23.88Z"/><path class="cls-4" d="M21.45,23.88a5.8,5.8,0,0,1-5.71,5.9,5.91,5.91,0,0,1,0-11.81A5.8,5.8,0,0,1,21.45,23.88Z"/><path class="cls-2" d="M18.18,23.88a2.44,2.44,0,1,1-2.44-2.53A2.48,2.48,0,0,1,18.18,23.88Z"/><circle class="cls-3" cx="44.33" cy="35.2" r="4.17"/><circle class="cls-3" cx="10.18" cy="35.2" r="4.17"/></g></g></g></g></svg>