<?xml version="1.0" encoding="utf-8"?>
<!-- Generator: Adobe Illustrator 23.1.0, SVG Export Plug-In . SVG Version: 6.00 Build 0)  -->
<svg version="1.1" id="Layer_1" xmlns="http://www.w3.org/2000/svg" xmlns:xlink="http://www.w3.org/1999/xlink" x="0px" y="0px"
	 viewBox="0 0 300 300" style="enable-background:new 0 0 300 300;" xml:space="preserve">
<path d="M175.2,143.9c-0.2,0.8-0.3,1.7-0.6,2.5c-1.7,4.6-4.9,7.1-9.7,7.8c-0.1,0-0.2,0-0.4,0c0.1,0.7,0.1,1.5,0.2,2.2
	c0.4,2,1.2,3.7,2.3,5.4c0.2,0.3,0.3,0.5,0.5,0.8c0.2,0.4,0.2,0.7-0.1,1c-1.3,1.3-2.5,2.6-3.8,3.8c-0.4,0.4-0.8,0.4-1.3-0.1
	c-1.2-1.3-2.5-2.6-3.6-4c-2.9-3.8-4.7-8.1-5.6-12.7c-0.6-2.9-0.7-5.8-0.3-8.8c0.7-4.8,3.9-8.9,8.8-10c6-1.3,12,2.4,13.5,8.5
	c0.1,0.5,0.2,1.1,0.3,1.6C175.2,142.6,175.2,143.2,175.2,143.9z M165.7,162.9c-0.1-0.1-0.1-0.2-0.2-0.4c-0.9-1.5-1.7-3-2.1-4.7
	c-0.4-1.4-0.6-2.8-0.4-4.3c0.1-0.7,0.4-0.9,1.1-1c0.6-0.1,1.2-0.1,1.8-0.2c5.6-1.2,9-6.8,7.3-12.4c-1.4-4.8-6.5-7.8-11.3-6.7
	c-4.1,1-6.5,3.7-7.5,7.7c-0.7,2.8-0.5,5.6,0,8.4c0.7,4.7,2.5,8.9,5.3,12.7c1,1.3,2,2.5,3.1,3.7C163.8,164.8,164.7,163.9,165.7,162.9
	z"/>
<path d="M124,143.6c0.1-1,0.2-1.9,0.4-2.9c1.1-4.6,3.8-7.8,8.6-8.9c5.7-1.4,11.8,2.3,13.4,8c1.7,6.2-1.9,12.4-8,14.1
	c-0.7,0.2-1.4,0.3-2.2,0.4c-0.1,1.1,0.1,2.1,0.4,3.2c0.5,1.7,1.3,3.3,2.3,4.8c0.5,0.8,0.5,1-0.2,1.7c-1.1,1.1-2.2,2.2-3.3,3.3
	c-0.6,0.6-0.9,0.6-1.5,0c-4.7-4.4-7.6-9.7-9-15.9c-0.3-1.4-0.4-2.8-0.6-4.2c0-0.2-0.1-0.4-0.1-0.6C124,145.5,124,144.6,124,143.6z
	 M137.3,162.9c-0.1-0.1-0.1-0.2-0.2-0.3c-0.9-1.5-1.7-3-2.1-4.7c-0.4-1.4-0.6-2.9-0.3-4.3c0.1-0.7,0.4-0.9,1-0.9
	c0.6-0.1,1.2-0.1,1.8-0.2c6-1.3,9.3-7.5,7-13.2c-1.9-4.7-7.4-7.3-12.2-5.5c-3.8,1.4-5.8,4.4-6.4,8.3c-0.4,2.8-0.2,5.6,0.3,8.3
	c1.1,5.6,3.6,10.4,7.4,14.5c0.3,0.3,0.6,0.6,0.9,0.9C135.4,164.8,136.3,163.9,137.3,162.9z"/>
</svg>
