<svg xmlns="http://www.w3.org/2000/svg" viewBox="0 0 54.51 50.88"><defs><style>.cls-1{fill:#f4a3a9;}.cls-2{fill:#fc6369;}.cls-3{fill:#333;}.cls-4{fill:#e55725;}</style></defs><title>Asset 6</title><g id="Layer_2" data-name="Layer 2"><g id="Layer_1-2" data-name="Layer 1"><g id="New_Symbol" data-name="New Symbol"><g id="New_Symbol_2" data-name="New Symbol 2"><rect class="cls-1" width="54.51" height="50.88"/><path class="cls-2" d="M42.65,12.21C38.25,3.81,30.09,9.76,31.52,16,32.65,21,38.06,28,38.06,28c.78-.27,8.33-3,11.93-6.55C54.56,16.89,50.89,7.49,42.65,12.21Z"/><path class="cls-2" d="M11.86,12.21C16.27,3.81,24.42,9.76,23,16,21.86,21,16.45,28,16.45,28c-.78-.27-8.33-3-11.92-6.55C0,16.89,3.63,7.49,11.86,12.21Z"/><path class="cls-3" d="M17.39,33.13c-.68-.22-1.31.51-1.11,1.29a11.12,11.12,0,0,0,11,8.06,11.11,11.11,0,0,0,11-8.06c.2-.78-.43-1.51-1.11-1.29a32.37,32.37,0,0,1-19.73,0Z"/><path class="cls-4" d="M27.26,37.78A5.75,5.75,0,0,0,22,41.26a12,12,0,0,0,10.53,0A5.74,5.74,0,0,0,27.26,37.78Z"/></g></g></g></g></svg>