<svg xmlns="http://www.w3.org/2000/svg" xmlns:xlink="http://www.w3.org/1999/xlink" viewBox="0 0 349.32 306.63"><defs><style>.cls-1{mask:url(#mask);filter:url(#luminosity-noclip-3);}.cls-2,.cls-4,.cls-7{mix-blend-mode:multiply;}.cls-2{fill:url(#radial-gradient);}.cls-3{mask:url(#mask-2);filter:url(#luminosity-noclip-4);}.cls-4{fill:url(#radial-gradient-2);}.cls-5{isolation:isolate;}.cls-6{fill:url(#ÕÓ_È_Ó·_ÁÂ_ËÂÌÚ_1);}.cls-7{fill:#fbd69e;}.cls-8{mask:url(#mask-3);}.cls-11,.cls-9{mix-blend-mode:darken;}.cls-9{fill:url(#radial-gradient-3);}.cls-10{mask:url(#mask-4);}.cls-11{fill:url(#radial-gradient-4);}.cls-12{fill:#87594a;}.cls-13{fill:url(#linear-gradient);}.cls-14{fill:url(#linear-gradient-2);}.cls-15{fill:url(#linear-gradient-3);}.cls-16{filter:url(#luminosity-noclip-2);}.cls-17{filter:url(#luminosity-noclip);}</style><filter id="luminosity-noclip" x="40.71" y="-7967.62" width="97.87" height="32766" filterUnits="userSpaceOnUse" color-interpolation-filters="sRGB"><feFlood flood-color="#fff" result="bg"/><feBlend in="SourceGraphic" in2="bg"/></filter><mask id="mask" x="40.71" y="-7967.62" width="97.87" height="32766" maskUnits="userSpaceOnUse"><g class="cls-17"/></mask><radialGradient id="radial-gradient" cx="440.29" cy="-19.91" r="24.47" gradientTransform="translate(-790.93 224.38) scale(2)" gradientUnits="userSpaceOnUse"><stop offset="0" stop-color="#fff"/><stop offset="0.18" stop-color="#fcfcfc"/><stop offset="0.31" stop-color="#f3f3f3"/><stop offset="0.43" stop-color="#e3e3e3"/><stop offset="0.54" stop-color="#ccc"/><stop offset="0.64" stop-color="#afafaf"/><stop offset="0.74" stop-color="#8b8b8b"/><stop offset="0.83" stop-color="#616161"/><stop offset="0.92" stop-color="#313131"/><stop offset="1"/></radialGradient><filter id="luminosity-noclip-2" x="236.08" y="-7967.62" width="97.87" height="32766" filterUnits="userSpaceOnUse" color-interpolation-filters="sRGB"><feFlood flood-color="#fff" result="bg"/><feBlend in="SourceGraphic" in2="bg"/></filter><mask id="mask-2" x="236.08" y="-7967.62" width="97.87" height="32766" maskUnits="userSpaceOnUse"><g class="cls-16"/></mask><radialGradient id="radial-gradient-2" cx="517.92" cy="-19.91" r="24.47" gradientTransform="matrix(-2, 0, 0, 2, 1320.85, 224.38)" xlink:href="#radial-gradient"/><radialGradient id="ÕÓ_È_Ó·_ÁÂ_ËÂÌÚ_1" cx="489.56" cy="-46.75" r="76.65" gradientTransform="translate(109.07 -824.4) rotate(89.58) scale(2)" gradientUnits="userSpaceOnUse"><stop offset="0" stop-color="#fddb35"/><stop offset="0.48" stop-color="#fdd934"/><stop offset="0.66" stop-color="#fcd232"/><stop offset="0.78" stop-color="#fbc72e"/><stop offset="0.88" stop-color="#fab629"/><stop offset="0.96" stop-color="#f8a022"/><stop offset="1" stop-color="#f7941e"/></radialGradient><filter id="luminosity-noclip-3" x="40.71" y="135.61" width="97.87" height="97.87" filterUnits="userSpaceOnUse" color-interpolation-filters="sRGB"><feFlood flood-color="#fff" result="bg"/><feBlend in="SourceGraphic" in2="bg"/></filter><mask id="mask-3" x="40.71" y="135.61" width="97.87" height="97.87" maskUnits="userSpaceOnUse"><g class="cls-1"><circle class="cls-2" cx="89.65" cy="184.55" r="48.94"/></g></mask><radialGradient id="radial-gradient-3" cx="440.29" cy="-19.91" r="24.47" gradientTransform="translate(-790.93 224.38) scale(2)" gradientUnits="userSpaceOnUse"><stop offset="0" stop-color="#ffa482"/><stop offset="0.31" stop-color="#ffa67f"/><stop offset="0.54" stop-color="#ffac76"/><stop offset="0.74" stop-color="#ffb566"/><stop offset="0.93" stop-color="#ffc34f"/><stop offset="1" stop-color="#ffca44"/></radialGradient><filter id="luminosity-noclip-4" x="236.08" y="135.61" width="97.87" height="97.87" filterUnits="userSpaceOnUse" color-interpolation-filters="sRGB"><feFlood flood-color="#fff" result="bg"/><feBlend in="SourceGraphic" in2="bg"/></filter><mask id="mask-4" x="236.08" y="135.61" width="97.87" height="97.87" maskUnits="userSpaceOnUse"><g class="cls-3"><circle class="cls-4" cx="285.01" cy="184.55" r="48.94"/></g></mask><radialGradient id="radial-gradient-4" cx="517.92" cy="-19.91" r="24.47" gradientTransform="matrix(-2, 0, 0, 2, 1320.85, 224.38)" xlink:href="#radial-gradient-3"/><linearGradient id="linear-gradient" x1="1575.42" y1="-136.77" x2="1638.01" y2="-74.18" gradientTransform="matrix(-0.97, 0.25, 0.25, 0.97, 1882.08, -251.76)" gradientUnits="userSpaceOnUse"><stop offset="0" stop-color="#ec3676"/><stop offset="1" stop-color="#e3272d"/></linearGradient><linearGradient id="linear-gradient-2" x1="1637.09" y1="71.34" x2="1699.69" y2="133.93" xlink:href="#linear-gradient"/><linearGradient id="linear-gradient-3" x1="1934.27" y1="-476.87" x2="1996.86" y2="-414.28" gradientTransform="matrix(-0.75, 0.66, 0.66, 0.75, 1814.28, -739.64)" xlink:href="#linear-gradient"/></defs><title>Asset 2</title><g class="cls-5"><g id="Layer_2" data-name="Layer 2"><g id="_ÎÓÈ_1" data-name="—ÎÓÈ_1"><ellipse class="cls-6" cx="187.33" cy="153.31" rx="153.31" ry="153.31" transform="translate(32.65 339.51) rotate(-89.58)"/><path class="cls-7" d="M340.64,153.32A153.31,153.31,0,0,1,97.48,277.54,163.83,163.83,0,0,0,337.15,132.37c0-4.92-.21-9.81-.66-14.63A153.38,153.38,0,0,1,340.64,153.32Z"/><path class="cls-7" d="M137,105a39.72,39.72,0,0,0-31,10.19c-3.18,2.86-8,4-11.43,1.69l-.12-.09c-3.43-2.26-3.25-8.48,1.38-12.71A54.8,54.8,0,0,1,138.59,90c6.23.66,10.07,5.57,8.65,9.42l-.05.14C145.78,103.48,141.24,105.44,137,105Z"/><path class="cls-7" d="M237.68,105a39.72,39.72,0,0,1,31.05,10.19c3.18,2.86,8,4,11.43,1.69l.13-.09c3.42-2.26,3.24-8.48-1.39-12.71A54.78,54.78,0,0,0,236.07,90c-6.23.66-10.07,5.57-8.65,9.42l.05.14C228.88,103.48,233.42,105.44,237.68,105Z"/><g class="cls-8"><circle class="cls-9" cx="89.65" cy="184.55" r="48.94"/></g><g class="cls-10"><circle class="cls-11" cx="285.01" cy="184.55" r="48.94"/></g><path class="cls-12" d="M164.13,157a11.06,11.06,0,0,1-7.79-1.19c-7.3-3.91-16.17-1.48-18-1.19s-11,.85-16.63,6.9a11,11,0,0,1-7,3.63c-2.62.25-5.29-.56-6-4.15a7.49,7.49,0,0,1,.64-4.83c5.29-10.52,14.38-18.1,25.6-20l.76-.13c11.23-1.85,22.29,2.42,30.68,10.69a7.43,7.43,0,0,1,2.16,4.4C169,154.75,166.69,156.35,164.13,157Z"/><path class="cls-12" d="M210.53,157a11.06,11.06,0,0,0,7.79-1.19c7.3-3.91,16.17-1.48,18-1.19s11,.85,16.62,6.9a11,11,0,0,0,7,3.63c2.62.25,5.28-.56,6-4.15a7.37,7.37,0,0,0-.64-4.83c-5.29-10.52-14.37-18.1-25.59-20l-.77-.13c-11.23-1.85-22.28,2.42-30.68,10.69a7.42,7.42,0,0,0-2.15,4.4C205.71,154.75,208,156.35,210.53,157Z"/><path class="cls-12" d="M188,224.26H186.7A65.13,65.13,0,0,1,147,211a2.73,2.73,0,0,0-4.3,2.9c6.54,22,23.84,37.73,44.16,37.73h.95c20.32,0,37.62-15.72,44.15-37.73a2.72,2.72,0,0,0-4.29-2.9A65.18,65.18,0,0,1,188,224.26Z"/><path class="cls-13" d="M274.17,3.93a23.46,23.46,0,0,1,31.32,15c.09.28.18.57.29,1l.57-.81a23.47,23.47,0,0,1,34.43-4.47c8.15,6.87,10.85,19.73,6.42,30.61-2.57,6.31-6.8,11.44-11.63,16.1-11.79,11.36-25.46,20-39.68,28a1.36,1.36,0,0,1-2.33-.37c-11-12-21.33-24.47-29-38.93C261.43,44,259,37.81,258.54,31,257.72,19.29,264.29,7.91,274.17,3.93Z"/><path class="cls-14" d="M265.5,220.82a23.46,23.46,0,0,1,31.32,15c.09.28.17.57.29,1l.57-.81a23.47,23.47,0,0,1,34.43-4.47c8.14,6.87,10.85,19.73,6.42,30.61-2.57,6.31-6.8,11.44-11.64,16.1-11.78,11.36-25.46,20-39.68,27.95a1.35,1.35,0,0,1-2.32-.37c-11-11.95-21.33-24.46-29-38.92-3.15-5.94-5.56-12.14-6-18.93C249,236.18,255.62,224.8,265.5,220.82Z"/><path class="cls-15" d="M5.71,202.78a23.47,23.47,0,0,1,34.71-1c.2.22.41.43.69.72,0-.4.09-.69.13-1a23.48,23.48,0,0,1,28.61-19.67c10.38,2.4,18.65,12.61,19.66,24.32.59,6.78-.82,13.28-3,19.63-5.31,15.48-13.52,29.44-22.57,43a3.71,3.71,0,0,1-.9,1,3.73,3.73,0,0,1-1.33-.29c-15.28-5.6-30.14-12-43.56-21.43-5.5-3.85-10.47-8.26-14-14.09C-1.93,224-1.26,210.83,5.71,202.78Z"/></g></g></g></svg>