<svg xmlns="http://www.w3.org/2000/svg" viewBox="0 0 54.51 50.88"><defs><style>.cls-1{fill:#d61a3b;}.cls-2{fill:#333;}</style></defs><title>Asset 11</title><g id="Layer_2" data-name="Layer 2"><g id="Layer_1-2" data-name="Layer 1"><g id="New_Symbol" data-name="New Symbol"><g id="New_Symbol_2" data-name="New Symbol 2"><rect class="cls-1" width="54.51" height="50.88"/><path class="cls-2" d="M19.66,26.94c0,2.18-1.24,3.94-2.78,3.94s-2.77-1.76-2.77-3.94S15.35,23,16.88,23,19.66,24.77,19.66,26.94Z"/><path class="cls-2" d="M40.4,26.94c0,2.18-1.24,3.94-2.77,3.94s-2.78-1.76-2.78-3.94S36.09,23,37.63,23,40.4,24.77,40.4,26.94Z"/><path class="cls-2" d="M35.34,41.87c.7.14,1.18-.91.71-1.59a10.67,10.67,0,0,0-8.79-5,10.68,10.68,0,0,0-8.8,5c-.47.68,0,1.73.71,1.59a40.53,40.53,0,0,1,8.09-.78A40.5,40.5,0,0,1,35.34,41.87Z"/><path class="cls-2" d="M20.85,24.35a.77.77,0,0,1-.73-.54,7.94,7.94,0,0,0-6.89-5.26A.76.76,0,0,1,13.4,17a9.5,9.5,0,0,1,8.19,6.34.77.77,0,0,1-.52.94A.78.78,0,0,1,20.85,24.35Z"/><path class="cls-2" d="M33.66,24.35a.83.83,0,0,1-.22,0,.76.76,0,0,1-.51-.94A9.48,9.48,0,0,1,41.11,17a.76.76,0,0,1,.18,1.51,7.94,7.94,0,0,0-6.9,5.26A.76.76,0,0,1,33.66,24.35Z"/></g></g></g></g></svg>