<svg xmlns="http://www.w3.org/2000/svg" xmlns:xlink="http://www.w3.org/1999/xlink" viewBox="0 0 306.64 306.61"><defs><style>.cls-1{isolation:isolate;}.cls-2{fill:url(#radial-gradient);}.cls-3{fill:#fbaa9e;mix-blend-mode:multiply;}.cls-4{fill:#87594a;}.cls-5{fill:#fff;}.cls-6{fill:#212722;}</style><radialGradient id="radial-gradient" cx="-956.06" cy="-46.75" r="76.65" gradientTransform="translate(2066.3 224.38) scale(2)" gradientUnits="userSpaceOnUse"><stop offset="0" stop-color="#fda135"/><stop offset="0.46" stop-color="#fd9f35"/><stop offset="0.62" stop-color="#fc9833"/><stop offset="0.74" stop-color="#fc8d30"/><stop offset="0.83" stop-color="#fb7c2c"/><stop offset="0.92" stop-color="#f96626"/><stop offset="0.99" stop-color="#f74b20"/><stop offset="1" stop-color="#f7451e"/></radialGradient></defs><title>Asset 7</title><g class="cls-1"><g id="Layer_2" data-name="Layer 2"><g id="_ÎÓÈ_1" data-name="—ÎÓÈ_1"><path class="cls-2" d="M306.63,153.3A153.32,153.32,0,1,1,153.33,0,153.29,153.29,0,0,1,306.63,153.3Z"/><path class="cls-3" d="M306.64,153.31A153.33,153.33,0,0,1,63.47,277.53,163.83,163.83,0,0,0,303.14,132.36c0-4.92-.21-9.81-.66-14.63A153.32,153.32,0,0,1,306.64,153.31Z"/><path class="cls-3" d="M95,119a39.77,39.77,0,0,1,27.75,17.27c2.41,3.53,6.82,5.76,10.7,4.35l.14-.06c3.86-1.38,5.16-7.47,1.67-12.67A54.83,54.83,0,0,0,97,104c-6.21-.83-11.1,3-10.63,7.1v.15C86.85,115.38,90.81,118.35,95,119Z"/><path class="cls-3" d="M211.61,119a39.73,39.73,0,0,0-27.74,17.27c-2.41,3.53-6.83,5.76-10.71,4.35l-.14-.06c-3.86-1.38-5.16-7.47-1.67-12.67A54.83,54.83,0,0,1,209.62,104c6.21-.83,11.1,3,10.64,7.1l0,.15C219.8,115.38,215.85,118.35,211.61,119Z"/><ellipse class="cls-4" cx="105.5" cy="163.64" rx="23.79" ry="24.6"/><path class="cls-5" d="M114.44,154.11a8.94,8.94,0,1,1-8.94-8.94A8.94,8.94,0,0,1,114.44,154.11Z"/><path class="cls-4" d="M224.93,163.64c0,13.59-10.65,24.6-23.78,24.6s-23.79-11-23.79-24.6S188,139,201.15,139,224.93,150.06,224.93,163.64Z"/><path class="cls-5" d="M210.08,154.11a8.94,8.94,0,1,1-8.93-8.94A8.94,8.94,0,0,1,210.08,154.11Z"/><rect class="cls-6" x="32.16" y="199.24" width="242.31" height="78.53"/><path class="cls-5" d="M45.66,221.27h1.28q2.69,0,3,3.25v21.74l-.15.15H48.7c-1.55,0-2.59-.87-3.1-2.62l-.07-1V221.4Zm0,28h.86a3.21,3.21,0,0,1,3.31,2.13l.15.92v3.25l-.15.13h-1a3,3,0,0,1-3.12-2.39l-.13-1.2v-2.68Z"/><path class="cls-5" d="M58,221.27h8.82a7.79,7.79,0,0,1,7.88,5.36,11.08,11.08,0,0,1,.42,2.67v3.39a8,8,0,0,1-3.15,6.2,9.4,9.4,0,0,1-3.47,1.48v7.19l-.13.14H67.4a3.3,3.3,0,0,1-3.25-2.47l-.14-1v-5.57A2.63,2.63,0,0,1,66.19,236a4.21,4.21,0,0,0,4.39-3.31l.13-1.55v-.92a4.19,4.19,0,0,0-3.31-4.44l-2.12-.15H60.7A2.8,2.8,0,0,1,58,223.52l-.14-1.2v-.92Zm6.27,28.13h1.27a3.23,3.23,0,0,1,3,3.37v2.83l-.15.13H67.19a3.07,3.07,0,0,1-3-2.25l-.13-1.27v-2.68Z"/><path class="cls-5" d="M82.86,221.27h1.29c1.78,0,2.8,1.08,3,3.25v21.74l-.15.15H85.91c-1.56,0-2.59-.87-3.1-2.62l-.08-1V221.4Zm0,28h.87A3.22,3.22,0,0,1,87,251.43l.15.92v3.25l-.15.13H86a3,3,0,0,1-3.12-2.39l-.13-1.2v-2.68Z"/><path class="cls-5" d="M95.15,221.27H104a7.8,7.8,0,0,1,7.89,5.36,11.08,11.08,0,0,1,.42,2.67v3.39a8,8,0,0,1-3.16,6.2,9.36,9.36,0,0,1-3.46,1.48v7.19l-.14.14h-.91a3.31,3.31,0,0,1-3.26-2.47l-.13-1v-5.57A2.63,2.63,0,0,1,103.4,236a4.19,4.19,0,0,0,4.38-3.31l.14-1.55v-.92a4.2,4.2,0,0,0-3.31-4.44l-2.13-.15H97.91a2.8,2.8,0,0,1-2.76-2.11l-.13-1.2v-.92Zm6.28,28.13h1.26a3.23,3.23,0,0,1,3,3.37v2.83l-.15.13H104.4a3.06,3.06,0,0,1-3-2.25l-.14-1.27v-2.68Z"/><path class="cls-5" d="M120.07,221.27h1.28q2.69,0,3,3.25v21.74l-.15.15h-1.13c-1.55,0-2.59-.87-3.1-2.62l-.07-1V221.4Zm0,28h.86a3.21,3.21,0,0,1,3.31,2.13l.15.92v3.25l-.15.13h-1a3,3,0,0,1-3.12-2.39l-.13-1.2v-2.68Z"/><path class="cls-5" d="M132.36,221.27h8.82a7.79,7.79,0,0,1,7.88,5.36,11.17,11.17,0,0,1,.43,2.67v3.39a8.05,8.05,0,0,1-3.16,6.2,9.4,9.4,0,0,1-3.47,1.48v7.19l-.13.14h-.92a3.3,3.3,0,0,1-3.25-2.47l-.14-1v-5.57A2.63,2.63,0,0,1,140.6,236a4.21,4.21,0,0,0,4.39-3.31l.13-1.55v-.92a4.19,4.19,0,0,0-3.31-4.44l-2.12-.15h-4.58a2.8,2.8,0,0,1-2.75-2.11l-.14-1.2v-.92Zm6.27,28.13h1.27a3.23,3.23,0,0,1,3,3.37v2.83l-.15.13H141.6a3.07,3.07,0,0,1-3-2.25l-.13-1.27v-2.68Z"/><path class="cls-5" d="M157.27,221.27h1.29c1.78,0,2.8,1.08,3,3.25v21.74l-.15.15h-1.13c-1.56,0-2.59-.87-3.1-2.62l-.08-1V221.4Zm0,28h.87a3.22,3.22,0,0,1,3.31,2.13l.15.92v3.25l-.15.13h-1.06a3,3,0,0,1-3.12-2.39l-.13-1.2v-2.68Z"/><path class="cls-5" d="M169.56,221.27h8.82a7.8,7.8,0,0,1,7.89,5.36,11.08,11.08,0,0,1,.42,2.67v3.39a8,8,0,0,1-3.16,6.2,9.36,9.36,0,0,1-3.46,1.48v7.19l-.14.14H179a3.31,3.31,0,0,1-3.26-2.47l-.13-1v-5.57a2.63,2.63,0,0,1,2.18-2.68,4.19,4.19,0,0,0,4.38-3.31l.14-1.55v-.92a4.2,4.2,0,0,0-3.31-4.44l-2.13-.15h-4.57a2.8,2.8,0,0,1-2.76-2.11l-.13-1.2v-.92Zm6.28,28.13h1.26a2.88,2.88,0,0,1,2.89,2.24,2.82,2.82,0,0,1,.16,1.13v2.83l-.16.13h-1.18a3.06,3.06,0,0,1-3-2.25l-.14-1.27v-2.68Z"/><path class="cls-5" d="M194.48,221.27h1.28c1.79,0,2.8,1.08,3.05,3.25v21.74l-.16.15h-1.13c-1.55,0-2.59-.87-3.1-2.62l-.07-1V221.4Zm0,28h.86a3.21,3.21,0,0,1,3.31,2.13l.16.92v3.25l-.16.13H197.6a3,3,0,0,1-3.12-2.39l-.13-1.2v-2.68Z"/><path class="cls-5" d="M206.77,221.27h8.82a7.79,7.79,0,0,1,7.88,5.36,10.69,10.69,0,0,1,.43,2.67v3.39a8.05,8.05,0,0,1-3.16,6.2,9.4,9.4,0,0,1-3.47,1.48v7.19l-.13.14h-.92a3.3,3.3,0,0,1-3.25-2.47l-.14-1v-5.57A2.63,2.63,0,0,1,215,236a4.21,4.21,0,0,0,4.38-3.31l.13-1.55v-.92a4.19,4.19,0,0,0-3.31-4.44l-2.12-.15h-4.58a2.8,2.8,0,0,1-2.75-2.11l-.14-1.2v-.92ZM213,249.4h1.27a3.23,3.23,0,0,1,3,3.37v2.83l-.15.13H216a3.07,3.07,0,0,1-3-2.25l-.13-1.27v-2.68Z"/><path class="cls-5" d="M231.68,221.27H233c1.78,0,2.8,1.08,3,3.25v21.74l-.15.15h-1.13c-1.56,0-2.59-.87-3.1-2.62l-.08-1V221.4Zm0,28h.87a3.22,3.22,0,0,1,3.31,2.13l.15.92v3.25l-.15.13H234.8a3.06,3.06,0,0,1-3.12-2.39l-.13-1.2v-2.68Z"/><path class="cls-5" d="M244,221.27h8.82a7.8,7.8,0,0,1,7.89,5.36,11.08,11.08,0,0,1,.42,2.67v3.39a8,8,0,0,1-3.16,6.2,9.36,9.36,0,0,1-3.46,1.48v7.19l-.14.14h-.91a3.32,3.32,0,0,1-3.26-2.47l-.13-1v-5.57a2.63,2.63,0,0,1,2.18-2.68,4.19,4.19,0,0,0,4.38-3.31l.14-1.55v-.92a4.2,4.2,0,0,0-3.31-4.44l-2.13-.15h-4.57a2.8,2.8,0,0,1-2.76-2.11l-.13-1.2v-.92Zm6.28,28.13h1.26a2.88,2.88,0,0,1,2.89,2.24,2.82,2.82,0,0,1,.16,1.13v2.83l-.16.13h-1.18a3.06,3.06,0,0,1-3-2.25l-.13-1.27v-2.68Z"/></g></g></g></svg>