<?xml version="1.0" encoding="utf-8"?>
<!-- Generator: Adobe Illustrator 23.1.0, SVG Export Plug-In . SVG Version: 6.00 Build 0)  -->
<svg version="1.1" id="Layer_1" xmlns="http://www.w3.org/2000/svg" xmlns:xlink="http://www.w3.org/1999/xlink" x="0px" y="0px"
	 viewBox="0 0 500 500" style="enable-background:new 0 0 500 500;" xml:space="preserve">
<style type="text/css">
	.st0{fill:url(#SVGID_1_);}
	.st1{fill:url(#SVGID_2_);}
	.st2{fill:url(#SVGID_3_);}
	.st3{fill-rule:evenodd;clip-rule:evenodd;fill:#FFFFFF;stroke:#FFFFFF;stroke-width:2.9098;stroke-miterlimit:10;}
	.st4{fill:none;stroke:#FFFFFF;stroke-width:5;stroke-linecap:round;stroke-linejoin:round;stroke-miterlimit:10;}
	.st5{fill-rule:evenodd;clip-rule:evenodd;fill:#FFFFFF;}
	.st6{fill:#FFFFFF;}
	.st7{fill:none;}
	.st8{font-family:'Kiona-Regular';}
	.st9{font-size:18px;}
	.st10{letter-spacing:11;}
	.st11{fill-rule:evenodd;clip-rule:evenodd;fill:#FFFFFF;stroke:#FFFFFF;stroke-width:2.1823;stroke-miterlimit:10;}
	.st12{fill:none;stroke:#FFFFFF;stroke-width:3.75;stroke-linecap:round;stroke-linejoin:round;stroke-miterlimit:10;}
	.st13{fill-rule:evenodd;clip-rule:evenodd;fill:#FFFFFF;stroke:#FFFFFF;stroke-width:4.4302;stroke-miterlimit:10;}
	.st14{fill:none;stroke:#FFFFFF;stroke-width:7.6127;stroke-linecap:round;stroke-linejoin:round;stroke-miterlimit:10;}
	.st15{opacity:0.2;}
</style>
<linearGradient id="SVGID_1_" gradientUnits="userSpaceOnUse" x1="1238.5796" y1="507.851" x2="1338.4469" y2="7.0594">
	<stop  offset="0" style="stop-color:#303A48"/>
	<stop  offset="2.007329e-02" style="stop-color:#313B49"/>
	<stop  offset="1" style="stop-color:#565071"/>
</linearGradient>
<rect x="1040" class="st0" width="500" height="500"/>
<linearGradient id="SVGID_2_" gradientUnits="userSpaceOnUse" x1="718.5797" y1="507.851" x2="818.447" y2="7.0594">
	<stop  offset="0" style="stop-color:#303A48"/>
	<stop  offset="2.007329e-02" style="stop-color:#313B49"/>
	<stop  offset="1" style="stop-color:#565071"/>
</linearGradient>
<rect x="520" class="st1" width="500" height="500"/>
<linearGradient id="SVGID_3_" gradientUnits="userSpaceOnUse" x1="-321.4203" y1="507.851" x2="-221.5531" y2="7.0594">
	<stop  offset="0" style="stop-color:#303A48"/>
	<stop  offset="2.007329e-02" style="stop-color:#313B49"/>
	<stop  offset="1" style="stop-color:#565071"/>
</linearGradient>
<rect x="-520" class="st2" width="500" height="500"/>
<g>
	<g>
		<path class="st3" d="M-276.1,391.1c-15.5,3.6-31.6,3.6-47.4-0.3c-23.4-5.7-44-19.4-59.7-37.5c-16.9-19.5-27.8-43.7-31.8-69.2
			c-5.5-34.6,1.8-69.7,17.6-100.8l0.1-0.2c1.2-2.3,3.7-3.4,6.1-2.8l0.2,0c11.7,2.9,23.1,7.1,34,12.4v0
			c21.2,10.2,40.6,24.4,57.1,41.2c14.6,14.8,29.7,35,37.6,56.2c7.9-21.1,23-41.3,37.6-56.2c5.7-5.8,11.7-11.3,18.1-16.4
			c1,4.2,1.8,8.4,2.4,12.7c-4.3,3.7-8.5,7.6-12.4,11.6c-11.5,11.7-21.9,25.2-29.5,39.8c-5.7,11-10.5,24.2-10.5,36.7
			c0,3-2.4,5.4-5.4,5.4h-0.5c-3,0-5.4-2.4-5.4-5.4c0-12.5-4.9-25.7-10.5-36.7c-15.6-30-43.9-56.8-72.9-73.2l-0.3-0.2l-0.4-0.2
			l-0.5-0.3l-0.3-0.2l-0.6-0.3l-0.1-0.1c-11.3-6.2-23.3-11.2-35.7-14.7c-13.4,27.9-19.4,59-14.5,89.8c3.7,23.4,13.7,45.7,29.2,63.6
			c14.2,16.3,32.8,28.7,53.8,33.9c9.9,2.4,19.8,3.2,29.7,2.3C-286.3,385.4-281.3,388.4-276.1,391.1L-276.1,391.1z M-317.3,341.1
			c-14.4-22-22.6-48-24.8-74.2c-1.1-13.5-0.7-27.2,1.4-40.6c3.5,2.5,7,5.1,10.4,7.8c-1.2,10.6-1.3,21.2-0.5,31.8
			c2,24.2,9.6,48.5,23,68.9c14.3,21.8,34.8,38.3,60.6,44.8l0,0c36.7,9.2,72.9-5.5,97.4-33.8c15.6-17.9,25.5-40.2,29.2-63.6
			c4.9-30.8-1.2-61.9-14.5-89.8c-14.7,4.1-28.8,10.4-41.9,18.2c-0.9-3.8-1.9-7.6-3-11.3c14.6-8.4,30.2-14.9,46.5-19l0.2,0
			c2.5-0.6,5,0.5,6.1,2.8l0.1,0.2c15.9,31,23.2,66.1,17.7,100.8c-4.1,25.5-14.9,49.7-31.8,69.2c-31.6,36.5-79.8,51.3-125,31.8
			C-287.6,376-304.8,360.3-317.3,341.1L-317.3,341.1z M-251,368.8c13.9-8.4,25.4-20.2,34.4-33.9c13.4-20.4,20.9-44.7,23-68.9
			c1.2-14.2,0.5-28.6-2-42.6l0,0c-0.7-4.1-1.6-8.1-2.7-12.1l0,0c-1.7-6.6-3.9-13.1-6.5-19.5v0c-0.1-0.3-0.3-0.6-0.4-0.9l0,0
			c-0.2-0.6-0.5-1.2-0.8-1.8l0,0l0-0.1c-0.2-0.4-0.3-0.8-0.5-1.1l-0.1-0.2l0-0.1l0-0.1l-0.3-0.7l0-0.1l0-0.1l-0.2-0.5l0,0l0-0.1
			l0-0.1l0-0.1l0-0.1l0-0.1l0-0.1l0-0.1l0-0.1l0-0.1c-0.1-0.3-0.3-0.6-0.4-0.9l0-0.1l0-0.1l0-0.1c-12.1-25.8-30.7-47.1-54.2-63.2
			c-24.8,17.1-44.3,40-56.3,67.8c-1.8,4.1-3.4,8.3-4.8,12.6c-3.2-2.2-6.4-4.4-9.7-6.5c1.3-3.6,2.6-7.1,4.1-10.6
			c13.4-31,35.4-56.4,63.6-74.9c1-0.6,2-0.9,3.1-0.9c1.1,0,2.1,0.3,3.1,0.9c28.1,18.5,50.1,43.8,63.5,74.8l0.1,0.1
			c8.8,20.5,13.5,42.8,13.8,65.1h0c0.1,5.7-0.1,11.5-0.6,17.2c-2.2,26.1-10.4,52.2-24.8,74.2c-7.9,12-17.5,22.6-28.8,31.1
			C-241.1,371.6-246.1,370.4-251,368.8L-251,368.8z"/>
	</g>
	<g>
		<path class="st4" d="M-218.8,408.7c12.1-0.7,44.4-4.2,74.4-28.4c21.3-17.2,32-37.2,37-48.3"/>
	</g>
	<path class="st4" d="M-427.7,220.4c-3.3,13.3-6.7,33.7-3.8,58.2c4.2,36.2,19.8,62.1,28.8,74.8"/>
	<path class="st4" d="M-217.1,128.9c6,5.5,13.4,13.2,20.2,23.5c8,12.1,12.5,23.5,15.1,32"/>
	<path class="st4" d="M-181.7,184.5c4.2-2.4,9.2-5,14.8-7.3c4.9-2,9.6-3.6,13.8-4.8"/>
	<circle class="st5" cx="-226.6" cy="118.3" r="3.7"/>
	<circle class="st5" cx="-241.8" cy="105.6" r="3.7"/>
	<circle class="st5" cx="-260.8" cy="95" r="3.7"/>
</g>
<g>
	<g>
		<path class="st6" d="M81.8,383.9c-3.4,0-6.6-0.9-9.6-2.6c-2.9-1.7-5.3-4.1-7-7c-1.7-3-2.6-6.2-2.6-9.7c0-3.5,0.9-6.7,2.6-9.6
			c1.7-2.9,4-5.3,7-7c2.9-1.7,6.1-2.6,9.6-2.6c2.7,0,5.2,0.6,7.7,1.7c2.5,1.1,4.6,2.7,6.5,4.7l-2,1.8c-1.5-1.7-3.4-3.1-5.5-4.1
			c-2.1-1-4.3-1.5-6.6-1.5c-3,0-5.7,0.7-8.2,2.2c-2.5,1.5-4.5,3.5-6,6.1c-1.5,2.6-2.2,5.3-2.2,8.4c0,3,0.7,5.8,2.2,8.4
			c1.5,2.6,3.5,4.6,6,6.1c2.5,1.5,5.3,2.2,8.2,2.2c2.5,0,4.8-0.5,7-1.6c2.2-1.1,4.1-2.6,5.7-4.5l2.1,1.6c-1.8,2.3-4,4.1-6.6,5.3
			C87.4,383.2,84.7,383.9,81.8,383.9z"/>
		<path class="st6" d="M119.7,373.9l-4.5,9.6h-2.9l17.7-38.2l16.8,38.2H144l-4.2-9.6H119.7z M129.9,351.7l-9,19.5h17.7L129.9,351.7z
			"/>
		<path class="st6" d="M165.1,383.5v-37.7h2.6v35.1h21.2v2.6H165.1z"/>
		<path class="st6" d="M245.3,383.5v-29.8l-16.7,23.8l-16.9-23.9v29.9h-2.6v-38.2l19.5,27.6l19.3-27.6v38.2H245.3z"/>
		<path class="st6" d="M273.7,373.9l-4.5,9.6h-2.9l17.7-38.2l16.8,38.2H298l-4.2-9.6H273.7z M283.9,351.7l-9,19.5h17.7L283.9,351.7z
			"/>
		<path class="st6" d="M344.2,345.8v2.7h-14.9v35h-2.7v-35h-15v-2.7H344.2z"/>
		<path class="st6" d="M394.3,345.8v2.7h-14.9v35h-2.7v-35h-15v-2.7H394.3z"/>
		<path class="st6" d="M412.9,383.5v-37.7h24.4v2.7h-21.8v14.8h17v2.7h-17v14.8h21.8v2.7H412.9z"/>
	</g>
	<rect x="63.9" y="404" class="st7" width="372.1" height="16.4"/>
	<text transform="matrix(1 0 0 1 63.9337 415.685)" class="st6 st8 st9 st10">BE CALM . BE STILL</text>
	<g>
		<g>
			<path class="st11" d="M245.4,304.4c-11.6,2.7-23.7,2.7-35.5-0.2c-17.5-4.3-33-14.5-44.8-28.1c-12.7-14.7-20.8-32.8-23.9-51.9
				c-4.1-26,1.4-52.3,13.2-75.6l0.1-0.1c0.9-1.7,2.7-2.6,4.6-2.1l0.1,0c8.8,2.2,17.3,5.3,25.5,9.3v0c15.9,7.7,30.5,18.3,42.8,30.9
				c10.9,11.1,22.3,26.3,28.2,42.1c6-15.9,17.3-31,28.2-42.1c4.3-4.4,8.8-8.5,13.6-12.3c0.7,3.1,1.3,6.3,1.8,9.5
				c-3.2,2.8-6.3,5.7-9.3,8.7c-8.6,8.8-16.4,18.9-22.1,29.8c-4.3,8.2-7.9,18.1-7.9,27.5c0,2.2-1.8,4.1-4.1,4.1h-0.4
				c-2.2,0-4.1-1.8-4.1-4.1c0-9.4-3.6-19.3-7.9-27.5c-11.7-22.5-32.9-42.6-54.7-54.9l-0.2-0.1l-0.3-0.1l-0.4-0.2l-0.2-0.1l-0.5-0.3
				l-0.1,0c-8.5-4.6-17.5-8.4-26.8-11c-10,20.9-14.6,44.3-10.9,67.3c2.8,17.6,10.2,34.2,21.9,47.7c10.6,12.2,24.6,21.5,40.4,25.4
				c7.4,1.8,14.9,2.4,22.3,1.7C237.7,300.2,241.5,302.4,245.4,304.4L245.4,304.4z M214.5,267c-10.8-16.5-17-36-18.6-55.6
				c-0.9-10.1-0.5-20.4,1-30.5c2.7,1.9,5.3,3.8,7.8,5.9c-0.9,7.9-1,15.9-0.3,23.9c1.5,18.2,7.2,36.4,17.2,51.7
				c10.7,16.4,26.1,28.7,45.5,33.6l0,0c27.5,6.9,54.7-4.2,73.1-25.3c11.7-13.5,19.1-30.1,21.9-47.7c3.7-23.1-0.9-46.4-10.9-67.3
				c-11,3.1-21.6,7.8-31.4,13.6c-0.7-2.9-1.4-5.7-2.3-8.5c10.9-6.3,22.7-11.2,34.9-14.2l0.1,0c1.9-0.5,3.7,0.4,4.6,2.1l0.1,0.1
				c11.9,23.3,17.4,49.6,13.2,75.6c-3,19.1-11.2,37.3-23.9,51.9c-23.7,27.4-59.8,38.5-93.7,23.9C236.8,293.1,223.9,281.3,214.5,267
				L214.5,267z M264.3,287.7c10.4-6.3,19.1-15.1,25.8-25.4c10-15.3,15.7-33.5,17.2-51.7c0.9-10.7,0.4-21.5-1.5-32l0,0
				c-0.6-3.1-1.2-6.1-2-9.1l0,0c-1.3-5-2.9-9.9-4.9-14.6v0c-0.1-0.2-0.2-0.4-0.3-0.7l0,0c-0.2-0.5-0.4-0.9-0.6-1.3l0,0l0-0.1
				c-0.1-0.3-0.2-0.6-0.4-0.8l-0.1-0.1l0-0.1l0-0.1l-0.2-0.5l0-0.1l0-0.1l-0.2-0.4l0,0l0-0.1l0-0.1l0-0.1l0-0.1l0-0.1l0-0.1l0-0.1
				l0-0.1l0-0.1c-0.1-0.2-0.2-0.4-0.3-0.6l0-0.1l0-0.1l0-0.1c-9.1-19.3-23.1-35.3-40.7-47.4c-18.6,12.8-33.2,30-42.2,50.9
				c-1.3,3.1-2.5,6.2-3.6,9.4c-2.4-1.7-4.8-3.3-7.3-4.9c0.9-2.7,2-5.3,3.1-7.9c10-23.3,26.5-42.3,47.7-56.2c0.7-0.5,1.5-0.7,2.3-0.7
				c0.8,0,1.6,0.2,2.3,0.7c21.1,13.9,37.6,32.8,47.6,56.1l0,0.1c6.6,15.4,10.1,32.1,10.4,48.8h0c0.1,4.3-0.1,8.6-0.4,12.9
				c-1.6,19.6-7.8,39.1-18.6,55.6c-5.9,9-13.2,17-21.6,23.3C271.7,289.8,267.9,288.9,264.3,287.7L264.3,287.7z"/>
		</g>
		<g>
			<path class="st12" d="M288.4,317.7c9.1-0.5,33.3-3.1,55.8-21.3c16-12.9,24-27.9,27.7-36.2"/>
		</g>
		<path class="st12" d="M131.7,176.4c-2.5,10-5,25.3-2.9,43.6c3.2,27.2,14.9,46.6,21.6,56.1"/>
		<path class="st12" d="M289.7,107.8c4.5,4.1,10,9.9,15.2,17.7c6,9.1,9.4,17.6,11.3,24"/>
		<path class="st12" d="M316.2,149.5c3.2-1.8,6.9-3.7,11.1-5.5c3.7-1.5,7.2-2.7,10.3-3.6"/>
		<circle class="st5" cx="282.5" cy="99.8" r="2.8"/>
		<circle class="st5" cx="271.2" cy="90.3" r="2.8"/>
		<circle class="st5" cx="256.9" cy="82.3" r="2.8"/>
	</g>
</g>
<g>
	<g>
		<path class="st13" d="M747.2,618.8c-23.6,5.5-48.1,5.5-72.1-0.4c-35.6-8.7-67-29.5-90.9-57.1c-25.8-29.8-42.3-66.6-48.5-105.4
			c-8.4-52.7,2.8-106.2,26.9-153.4l0.1-0.2c1.8-3.5,5.6-5.2,9.3-4.3l0.3,0.1c17.8,4.4,35.2,10.8,51.7,18.8v0
			c32.2,15.5,61.9,37.1,86.9,62.7c22.2,22.6,45.2,53.3,57.3,85.5c12.1-32.2,35.1-62.9,57.3-85.5c8.7-8.8,17.9-17.2,27.5-25
			c1.5,6.4,2.7,12.8,3.7,19.3c-6.6,5.6-12.9,11.5-18.9,17.7c-17.5,17.8-33.4,38.4-44.9,60.5c-8.7,16.7-16.1,36.8-16.1,55.8
			c0,4.5-3.7,8.3-8.2,8.3h-0.7c-4.5,0-8.2-3.7-8.2-8.3c0-19-7.4-39.1-16.1-55.8c-23.7-45.7-66.8-86.4-111.1-111.4l-0.5-0.3l-0.5-0.3
			l-0.8-0.4l-0.5-0.3l-1-0.5l-0.2-0.1c-17.2-9.4-35.5-17.1-54.3-22.3c-20.4,42.4-29.6,89.9-22.1,136.7c5.7,35.6,20.8,69.5,44.5,96.8
			c21.5,24.9,49.9,43.7,82,51.6c15.1,3.7,30.2,4.8,45.2,3.4C731.6,610.2,739.2,614.8,747.2,618.8L747.2,618.8z M684.4,542.7
			c-22-33.5-34.4-73.1-37.8-112.9c-1.7-20.6-1-41.4,2.1-61.8c5.4,3.8,10.7,7.8,15.8,11.9c-1.8,16.1-2,32.3-0.7,48.5
			c3.1,36.9,14.6,73.8,35,104.9c21.8,33.2,53,58.3,92.3,68.2l0,0c55.9,14.1,111-8.4,148.3-51.4c23.7-27.3,38.8-61.2,44.5-96.8
			c7.5-46.8-1.8-94.3-22.1-136.7c-22.3,6.2-43.8,15.8-63.7,27.7c-1.4-5.8-2.9-11.5-4.6-17.2c22.2-12.8,46-22.7,70.9-28.9l0.3-0.1
			c3.8-0.9,7.6,0.8,9.3,4.2l0.1,0.3c24.1,47.2,35.3,100.7,26.9,153.4c-6.2,38.8-22.7,75.7-48.5,105.4
			c-48.2,55.5-121.5,78.1-190.3,48.5C729.7,595.9,703.5,571.9,684.4,542.7L684.4,542.7z M785.4,584.8c21.1-12.8,38.7-30.7,52.4-51.5
			c20.4-31.1,31.9-68,35-104.9c1.8-21.7,0.8-43.5-3.1-64.9l0,0c-1.1-6.2-2.5-12.4-4.1-18.4l0,0c-2.7-10.1-6-20-9.9-29.7v0
			c-0.2-0.5-0.4-0.9-0.6-1.4l0,0c-0.4-0.9-0.8-1.8-1.2-2.7l0,0l-0.1-0.1c-0.2-0.6-0.5-1.2-0.7-1.7l-0.1-0.3L853,309l0-0.1l-0.5-1.1
			l-0.1-0.1l0-0.1l-0.3-0.8l0,0l-0.1-0.1l-0.1-0.1l0-0.1l-0.1-0.1l0-0.1l0-0.1l-0.1-0.1l0-0.1l-0.1-0.1c-0.2-0.4-0.4-0.9-0.6-1.3
			l0-0.1l-0.1-0.1l0-0.1C832.4,265,804,232.5,768.2,208c-37.8,26-67.4,60.9-85.7,103.3c-2.7,6.3-5.1,12.7-7.3,19.1
			c-4.8-3.4-9.8-6.7-14.8-9.8c1.9-5.4,4-10.8,6.3-16.1c20.3-47.2,53.9-85.9,96.8-114c1.5-1,3.1-1.4,4.7-1.3c1.6,0,3.3,0.4,4.7,1.3
			c42.8,28.1,76.3,66.7,96.7,113.8l0.1,0.2c13.5,31.3,20.5,65.2,21,99.2h0c0.1,8.7-0.2,17.5-0.9,26.2
			c-3.3,39.8-15.8,79.4-37.8,112.9c-12,18.2-26.7,34.4-43.9,47.4C800.5,589.1,792.9,587.3,785.4,584.8L785.4,584.8z"/>
	</g>
	<path class="st14" d="M837,219.6c9.2,8.3,20.3,20.1,30.8,35.8c12.2,18.4,19,35.8,23,48.7"/>
	<path class="st14" d="M890.8,304.2c6.5-3.7,14-7.5,22.6-11.1c7.5-3.1,14.6-5.4,21-7.2"/>
	<circle class="st5" cx="822.5" cy="203.4" r="5.6"/>
	<circle class="st5" cx="799.4" cy="184.2" r="5.6"/>
	<circle class="st5" cx="770.5" cy="167.9" r="5.6"/>
</g>
<g>
	<path class="st6" d="M579.1,85.6c-3.9,0-7.5-1-10.9-3c-3.3-2-6-4.6-7.9-8c-1.9-3.4-2.9-7-2.9-11c0-3.9,1-7.6,2.9-10.9
		c1.9-3.3,4.6-6,7.9-8c3.3-2,7-3,10.9-3c3,0,5.9,0.6,8.7,1.9c2.8,1.3,5.2,3,7.3,5.3l-2.3,2c-1.8-2-3.8-3.5-6.2-4.6
		c-2.4-1.1-4.9-1.6-7.5-1.6c-3.4,0-6.5,0.8-9.3,2.5c-2.9,1.7-5.1,4-6.8,6.9c-1.7,2.9-2.5,6.1-2.5,9.5c0,3.4,0.8,6.6,2.5,9.5
		c1.7,2.9,4,5.2,6.8,6.9c2.9,1.7,6,2.5,9.3,2.5c2.8,0,5.5-0.6,8-1.8c2.5-1.2,4.7-2.9,6.5-5.1l2.4,1.8c-2.1,2.6-4.6,4.6-7.5,6
		C585.5,84.9,582.4,85.6,579.1,85.6z"/>
	<path class="st6" d="M622.1,74.3L617,85.1h-3.3l20.1-43.3l19,43.3h-3.2l-4.8-10.9H622.1z M633.7,49.1l-10.3,22.2h20.1L633.7,49.1z"
		/>
	<path class="st6" d="M673.7,85.1V42.3h3v39.8h24v3H673.7z"/>
	<path class="st6" d="M764.7,85.1V51.3l-19,27.1l-19.2-27.1v33.9h-3V41.8l22.2,31.3l21.9-31.3v43.3H764.7z"/>
	<path class="st6" d="M796.9,74.3l-5.1,10.9h-3.3l20.1-43.3l19,43.3h-3.2l-4.8-10.9H796.9z M808.5,49.1l-10.3,22.2h20.1L808.5,49.1z
		"/>
	<path class="st6" d="M876.9,42.3v3H860v39.8h-3V45.4h-17v-3H876.9z"/>
	<path class="st6" d="M933.8,42.3v3h-16.9v39.8h-3V45.4h-17v-3H933.8z"/>
	<path class="st6" d="M954.9,85.1V42.3h27.7v3h-24.8v16.9h19.3v3h-19.3V82h24.8v3.1H954.9z"/>
</g>
<g>
	<path class="st6" d="M595,120.9c0.4,0.5,0.6,1.1,0.6,1.7c0,0.4-0.1,0.8-0.3,1.2c-0.2,0.4-0.5,0.8-0.8,1.1c-0.4,0.3-0.8,0.6-1.3,0.7
		c-0.5,0.2-1,0.3-1.5,0.3h-4.3l0-11.7h3.3c1.1,0,2,0.3,2.6,0.9c0.3,0.3,0.5,0.6,0.7,1s0.2,0.7,0.2,1.1c0,0.5-0.1,0.9-0.3,1.3
		c-0.2,0.4-0.5,0.7-0.8,0.9l-0.2,0.1c0.2,0.1,0.4,0.1,0.6,0.2C594.1,120,594.6,120.3,595,120.9z M588.2,119.3h2.5
		c0.3,0,0.6,0,0.8-0.1s0.4-0.1,0.6-0.2c0.3-0.1,0.6-0.4,0.9-0.7c0.3-0.3,0.4-0.7,0.4-1.2c0-0.4-0.1-0.7-0.3-1.1s-0.5-0.6-0.9-0.8
		c-0.4-0.2-0.9-0.3-1.5-0.3h-2.5V119.3z M593.3,124.7c0.5-0.2,0.8-0.5,1.1-0.9s0.4-0.8,0.4-1.2c0-0.5-0.1-0.9-0.4-1.3
		c-0.3-0.4-0.6-0.7-1.1-0.8c-0.6-0.3-1.3-0.4-2.2-0.4h-2.9v5h3.5C592.3,125.1,592.8,125,593.3,124.7z"/>
	<path class="st6" d="M610,125.9v-11.7h7.6v0.8h-6.8v4.6h5.3v0.8h-5.3v4.6h6.8v0.8H610z"/>
	<path class="st6" d="M655.4,126c-1.1,0-2.1-0.3-3-0.8s-1.6-1.3-2.2-2.2s-0.8-1.9-0.8-3s0.3-2.1,0.8-3c0.5-0.9,1.2-1.6,2.2-2.2
		s1.9-0.8,3-0.8c0.8,0,1.6,0.2,2.4,0.5c0.8,0.3,1.4,0.8,2,1.4l-0.6,0.6c-0.5-0.5-1-1-1.7-1.3s-1.3-0.5-2.1-0.5
		c-0.9,0-1.8,0.2-2.6,0.7s-1.4,1.1-1.9,1.9s-0.7,1.7-0.7,2.6c0,0.9,0.2,1.8,0.7,2.6s1.1,1.4,1.9,1.9s1.6,0.7,2.6,0.7
		c0.8,0,1.5-0.2,2.2-0.5c0.7-0.3,1.3-0.8,1.8-1.4l0.6,0.5c-0.6,0.7-1.2,1.3-2.1,1.6C657.1,125.8,656.3,126,655.4,126z"/>
	<path class="st6" d="M675.7,122.9l-1.4,3h-0.9l5.5-11.8l5.2,11.8h-0.9l-1.3-3H675.7z M678.9,116l-2.8,6.1h5.5L678.9,116z"/>
	<path class="st6" d="M698.3,125.9v-11.7h0.8v10.9h6.6v0.8H698.3z"/>
	<path class="st6" d="M731.8,125.9v-9.3l-5.2,7.4l-5.3-7.4v9.3h-0.8V114l6.1,8.6l6-8.6v11.8H731.8z"/>
	<path class="st6" d="M764.6,125.3c0-0.2,0.1-0.3,0.2-0.5s0.3-0.2,0.4-0.2s0.3,0.1,0.4,0.2c0.1,0.1,0.2,0.3,0.2,0.4
		c0,0.2-0.1,0.3-0.2,0.4s-0.3,0.2-0.4,0.2s-0.3-0.1-0.4-0.2S764.6,125.4,764.6,125.3z"/>
	<path class="st6" d="M805.5,120.9c0.4,0.5,0.6,1.1,0.6,1.7c0,0.4-0.1,0.8-0.3,1.2c-0.2,0.4-0.5,0.8-0.8,1.1
		c-0.4,0.3-0.8,0.6-1.3,0.7c-0.5,0.2-1,0.3-1.5,0.3h-4.3l0-11.7h3.3c1.1,0,2,0.3,2.6,0.9c0.3,0.3,0.5,0.6,0.7,1s0.2,0.7,0.2,1.1
		c0,0.5-0.1,0.9-0.3,1.3c-0.2,0.4-0.5,0.7-0.8,0.9l-0.2,0.1c0.2,0.1,0.4,0.1,0.6,0.2C804.6,120,805.1,120.3,805.5,120.9z
		 M798.7,119.3h2.5c0.3,0,0.6,0,0.8-0.1c0.2,0,0.4-0.1,0.6-0.2c0.3-0.1,0.6-0.4,0.9-0.7c0.3-0.3,0.4-0.7,0.4-1.2
		c0-0.4-0.1-0.7-0.3-1.1s-0.5-0.6-0.9-0.8c-0.4-0.2-0.9-0.3-1.5-0.3h-2.5V119.3z M803.8,124.7c0.5-0.2,0.8-0.5,1.1-0.9
		s0.4-0.8,0.4-1.2c0-0.5-0.1-0.9-0.4-1.3c-0.3-0.4-0.6-0.7-1.1-0.8c-0.6-0.3-1.3-0.4-2.2-0.4h-2.9v5h3.5
		C802.8,125.1,803.3,125,803.8,124.7z"/>
	<path class="st6" d="M820.5,125.9v-11.7h7.6v0.8h-6.8v4.6h5.3v0.8h-5.3v4.6h6.8v0.8H820.5z"/>
	<path class="st6" d="M868.3,121.4c0.3,0.5,0.5,0.9,0.5,1.4c0,0.4-0.1,0.9-0.3,1.3c-0.2,0.4-0.5,0.8-0.9,1.1
		c-0.8,0.6-1.8,0.9-2.9,0.9c-0.6,0-1.1-0.1-1.6-0.2c-0.5-0.2-1-0.4-1.3-0.7c-0.7-0.5-1.1-1.1-1.2-1.9l0.8-0.4c0,0.7,0.4,1.2,1,1.6
		c0.3,0.2,0.7,0.4,1.1,0.5s0.9,0.2,1.3,0.2c1,0,1.8-0.2,2.4-0.7c0.6-0.5,1-1,1-1.7c0-0.4-0.1-0.7-0.4-1s-0.6-0.6-1-0.8
		c-0.4-0.2-1.1-0.4-2.1-0.5c-0.1,0-0.4-0.1-0.9-0.1c-0.5-0.1-1-0.2-1.3-0.4c-0.6-0.3-1-0.7-1.4-1.1c-0.3-0.5-0.5-1-0.5-1.5
		c0-0.4,0.1-0.9,0.3-1.3c0.2-0.4,0.5-0.7,0.9-1c0.4-0.3,0.8-0.5,1.3-0.7c0.5-0.2,1-0.2,1.6-0.2c1.1,0,2.1,0.3,2.9,0.9
		c0.7,0.5,1.1,1.1,1.2,1.8l-0.8,0.4c0-0.3-0.1-0.6-0.3-0.9c-0.2-0.3-0.4-0.5-0.7-0.8c-0.3-0.2-0.7-0.4-1.1-0.5
		c-0.4-0.1-0.9-0.2-1.3-0.2s-0.9,0.1-1.3,0.2s-0.8,0.3-1.1,0.5c-0.3,0.2-0.6,0.5-0.7,0.8c-0.2,0.3-0.3,0.6-0.3,0.9
		c0,0.4,0.1,0.7,0.4,1.1c0.3,0.4,0.6,0.7,1,0.9c0.3,0.1,0.5,0.2,0.8,0.3c0.3,0.1,0.7,0.1,1.2,0.2c0.1,0,0.3,0,0.6,0.1
		c0.3,0,0.7,0.1,1,0.2c0.3,0.1,0.6,0.2,0.8,0.3C867.6,120.5,868,120.9,868.3,121.4z"/>
	<path class="st6" d="M892.4,114.2v0.8h-4.6v10.9H887V115h-4.6v-0.8H892.4z"/>
	<path class="st6" d="M906.9,125.9v-11.7h0.8v11.7H906.9z"/>
	<path class="st6" d="M923.1,125.9v-11.7h0.8v10.9h6.6v0.8H923.1z"/>
	<path class="st6" d="M945.3,125.9v-11.7h0.8v10.9h6.6v0.8H945.3z"/>
</g>
<g>
	<g>
		<path class="st13" d="M1268.8,618.8c-23.6,5.5-48.1,5.5-72.1-0.4c-35.6-8.7-67-29.5-90.9-57.1c-25.8-29.8-42.3-66.6-48.5-105.4
			c-8.4-52.7,2.8-106.2,26.9-153.4l0.1-0.2c1.8-3.5,5.6-5.2,9.3-4.3l0.3,0.1c17.8,4.4,35.2,10.8,51.7,18.8v0
			c32.2,15.5,61.9,37.1,86.9,62.7c22.2,22.6,45.2,53.3,57.3,85.5c12.1-32.2,35.1-62.9,57.3-85.5c8.7-8.8,17.9-17.2,27.5-25
			c1.5,6.4,2.7,12.8,3.7,19.3c-6.6,5.6-12.9,11.5-18.9,17.7c-17.5,17.8-33.4,38.4-44.9,60.5c-8.7,16.7-16.1,36.8-16.1,55.8
			c0,4.5-3.7,8.3-8.2,8.3h-0.7c-4.5,0-8.2-3.7-8.2-8.3c0-19-7.4-39.1-16.1-55.8c-23.7-45.7-66.8-86.4-111.1-111.4l-0.5-0.3l-0.5-0.3
			l-0.8-0.4l-0.5-0.3l-1-0.5l-0.2-0.1c-17.2-9.4-35.5-17.1-54.3-22.3c-20.4,42.4-29.6,89.9-22.1,136.7c5.7,35.6,20.8,69.5,44.5,96.8
			c21.5,24.9,49.9,43.7,82,51.6c15.1,3.7,30.2,4.8,45.2,3.4C1253.1,610.2,1260.8,614.8,1268.8,618.8L1268.8,618.8z M1205.9,542.7
			c-22-33.5-34.4-73.1-37.8-112.9c-1.7-20.6-1-41.4,2.1-61.8c5.4,3.8,10.7,7.8,15.8,11.9c-1.8,16.1-2,32.3-0.7,48.5
			c3.1,36.9,14.6,73.8,35,104.9c21.8,33.2,53,58.3,92.3,68.2l0,0c55.9,14.1,111-8.4,148.3-51.4c23.7-27.3,38.8-61.2,44.5-96.8
			c7.5-46.8-1.8-94.3-22.1-136.7c-22.3,6.2-43.8,15.8-63.7,27.7c-1.4-5.8-2.9-11.5-4.6-17.2c22.2-12.8,46-22.7,70.9-28.9l0.3-0.1
			c3.8-0.9,7.6,0.8,9.3,4.2l0.1,0.3c24.1,47.2,35.3,100.7,26.9,153.4c-6.2,38.8-22.7,75.7-48.5,105.4
			c-48.2,55.5-121.5,78.1-190.3,48.5C1251.3,595.9,1225.1,571.9,1205.9,542.7L1205.9,542.7z M1306.9,584.8
			c21.1-12.8,38.7-30.7,52.4-51.5c20.4-31.1,31.9-68,35-104.9c1.8-21.7,0.8-43.5-3.1-64.9l0,0c-1.1-6.2-2.5-12.4-4.1-18.4l0,0
			c-2.7-10.1-6-20-9.9-29.7v0c-0.2-0.5-0.4-0.9-0.6-1.4l0,0c-0.4-0.9-0.8-1.8-1.2-2.7l0,0l-0.1-0.1c-0.2-0.6-0.5-1.2-0.7-1.7
			l-0.1-0.3l-0.1-0.1l0-0.1l-0.5-1.1l-0.1-0.1l0-0.1l-0.3-0.8l0,0l-0.1-0.1l-0.1-0.1l0-0.1l-0.1-0.1l0-0.1l0-0.1l-0.1-0.1l0-0.1
			l-0.1-0.1c-0.2-0.4-0.4-0.9-0.6-1.3l0-0.1l-0.1-0.1l0-0.1c-18.4-39.2-46.8-71.7-82.5-96.3c-37.8,26-67.4,60.9-85.7,103.3
			c-2.7,6.3-5.1,12.7-7.3,19.1c-4.8-3.4-9.8-6.7-14.8-9.8c1.9-5.4,4-10.8,6.3-16.1c20.3-47.2,53.9-85.9,96.8-114
			c1.5-1,3.1-1.4,4.7-1.3c1.6,0,3.3,0.4,4.7,1.3c42.8,28.1,76.3,66.7,96.7,113.8l0.1,0.2c13.5,31.3,20.5,65.2,21,99.2h0
			c0.1,8.7-0.2,17.5-0.9,26.2c-3.3,39.8-15.8,79.4-37.8,112.9c-12,18.2-26.7,34.4-43.9,47.4C1322.1,589.1,1314.4,587.3,1306.9,584.8
			L1306.9,584.8z"/>
	</g>
	<path class="st14" d="M1358.6,219.6c9.2,8.3,20.3,20.1,30.8,35.8c12.2,18.4,19,35.8,23,48.7"/>
	<path class="st14" d="M1412.4,304.2c6.5-3.7,14-7.5,22.6-11.1c7.5-3.1,14.6-5.4,21-7.2"/>
	<circle class="st5" cx="1344.1" cy="203.4" r="5.6"/>
	<circle class="st5" cx="1321" cy="184.2" r="5.6"/>
	<circle class="st5" cx="1292.1" cy="167.9" r="5.6"/>
</g>
<g class="st15">
	<path class="st6" d="M1087.3,97c-4.1,0-8-1-11.5-3.1c-3.5-2.1-6.3-4.9-8.4-8.5c-2.1-3.6-3.1-7.4-3.1-11.6c0-4.2,1-8.1,3.1-11.6
		c2-3.5,4.8-6.4,8.4-8.5c3.5-2.1,7.4-3.1,11.5-3.1c3.2,0,6.3,0.7,9.3,2c3,1.3,5.6,3.2,7.8,5.6l-2.4,2.2c-1.9-2.1-4.1-3.7-6.6-4.9
		c-2.5-1.2-5.2-1.7-8-1.7c-3.6,0-6.9,0.9-9.9,2.7c-3,1.8-5.4,4.2-7.2,7.3c-1.8,3.1-2.7,6.4-2.7,10.1c0,3.6,0.9,7,2.7,10.1
		c1.8,3.1,4.2,5.5,7.2,7.3c3,1.8,6.3,2.7,9.9,2.7c3,0,5.8-0.7,8.5-2c2.7-1.3,5-3.1,6.9-5.5l2.5,2c-2.2,2.8-4.8,4.9-8,6.4
		C1094.1,96.3,1090.8,97,1087.3,97z"/>
	<path class="st6" d="M1132.9,85l-5.4,11.5h-3.5l21.4-46l20.2,46h-3.4l-5.1-11.5H1132.9z M1145.3,58.3l-10.9,23.6h21.3L1145.3,58.3z
		"/>
	<path class="st6" d="M1187.7,96.6V51.1h3.1v42.3h25.5v3.1H1187.7z"/>
	<path class="st6" d="M1284.3,96.6V60.6l-20.1,28.7l-20.4-28.8v36h-3.1v-46l23.6,33.3l23.3-33.3v46H1284.3z"/>
	<path class="st6" d="M1318.5,85l-5.4,11.5h-3.5l21.4-46l20.2,46h-3.4l-5.1-11.5H1318.5z M1330.9,58.3L1320,81.9h21.3L1330.9,58.3z"
		/>
	<path class="st6" d="M1403.5,51.1v3.2h-18v42.2h-3.2V54.3h-18v-3.2H1403.5z"/>
	<path class="st6" d="M1463.9,51.1v3.2h-18v42.2h-3.2V54.3h-18v-3.2H1463.9z"/>
	<path class="st6" d="M1486.3,96.6V51.1h29.4v3.2h-26.3v17.9h20.5v3.2h-20.5v17.8h26.3v3.3H1486.3z"/>
</g>
<g class="st15">
	<path class="st6" d="M1109.5,120.8c0.4,0.5,0.6,1.1,0.6,1.7c0,0.4-0.1,0.8-0.3,1.2c-0.2,0.4-0.5,0.8-0.8,1.1
		c-0.4,0.3-0.8,0.6-1.3,0.7c-0.5,0.2-1,0.3-1.5,0.3h-4.3l0-11.7h3.3c1.1,0,2,0.3,2.6,0.9c0.3,0.3,0.5,0.6,0.7,1s0.2,0.7,0.2,1.1
		c0,0.5-0.1,0.9-0.3,1.3c-0.2,0.4-0.5,0.7-0.8,0.9l-0.2,0.1c0.2,0.1,0.4,0.1,0.6,0.2C1108.7,120,1109.1,120.3,1109.5,120.8z
		 M1102.7,119.3h2.5c0.3,0,0.6,0,0.8-0.1s0.4-0.1,0.6-0.2c0.3-0.1,0.6-0.4,0.9-0.7c0.3-0.3,0.4-0.7,0.4-1.2c0-0.4-0.1-0.7-0.3-1.1
		s-0.5-0.6-0.9-0.8c-0.4-0.2-0.9-0.3-1.5-0.3h-2.5V119.3z M1107.8,124.7c0.5-0.2,0.8-0.5,1.1-0.9s0.4-0.8,0.4-1.2
		c0-0.5-0.1-0.9-0.4-1.3c-0.3-0.4-0.6-0.7-1.1-0.8c-0.6-0.3-1.3-0.4-2.2-0.4h-2.9v5h3.5C1106.8,125.1,1107.4,124.9,1107.8,124.7z"/>
	<path class="st6" d="M1124.5,125.9v-11.7h7.6v0.8h-6.8v4.6h5.3v0.8h-5.3v4.6h6.8v0.8H1124.5z"/>
	<path class="st6" d="M1169.9,126c-1.1,0-2.1-0.3-3-0.8s-1.6-1.3-2.2-2.2s-0.8-1.9-0.8-3s0.3-2.1,0.8-3c0.5-0.9,1.2-1.6,2.2-2.2
		s1.9-0.8,3-0.8c0.8,0,1.6,0.2,2.4,0.5c0.8,0.3,1.4,0.8,2,1.4l-0.6,0.6c-0.5-0.5-1-1-1.7-1.3s-1.3-0.5-2.1-0.5
		c-0.9,0-1.8,0.2-2.6,0.7s-1.4,1.1-1.9,1.9s-0.7,1.7-0.7,2.6c0,0.9,0.2,1.8,0.7,2.6s1.1,1.4,1.9,1.9s1.6,0.7,2.6,0.7
		c0.8,0,1.5-0.2,2.2-0.5c0.7-0.3,1.3-0.8,1.8-1.4l0.6,0.5c-0.6,0.7-1.2,1.3-2.1,1.6C1171.7,125.8,1170.8,126,1169.9,126z"/>
	<path class="st6" d="M1190.2,122.9l-1.4,3h-0.9l5.5-11.8l5.2,11.8h-0.9l-1.3-3H1190.2z M1193.4,116l-2.8,6.1h5.5L1193.4,116z"/>
	<path class="st6" d="M1212.9,125.9v-11.7h0.8v10.9h6.6v0.8H1212.9z"/>
	<path class="st6" d="M1246.3,125.9v-9.3l-5.2,7.4l-5.3-7.4v9.3h-0.8V114l6.1,8.6l6-8.6v11.8H1246.3z"/>
	<path class="st6" d="M1279.2,125.3c0-0.2,0.1-0.3,0.2-0.5s0.3-0.2,0.4-0.2s0.3,0.1,0.4,0.2c0.1,0.1,0.2,0.3,0.2,0.4
		c0,0.2-0.1,0.3-0.2,0.4s-0.3,0.2-0.4,0.2s-0.3-0.1-0.4-0.2S1279.2,125.4,1279.2,125.3z"/>
	<path class="st6" d="M1320,120.8c0.4,0.5,0.6,1.1,0.6,1.7c0,0.4-0.1,0.8-0.3,1.2c-0.2,0.4-0.5,0.8-0.8,1.1
		c-0.4,0.3-0.8,0.6-1.3,0.7c-0.5,0.2-1,0.3-1.5,0.3h-4.3l0-11.7h3.3c1.1,0,2,0.3,2.6,0.9c0.3,0.3,0.5,0.6,0.7,1s0.2,0.7,0.2,1.1
		c0,0.5-0.1,0.9-0.3,1.3c-0.2,0.4-0.5,0.7-0.8,0.9l-0.2,0.1c0.2,0.1,0.4,0.1,0.6,0.2C1319.2,120,1319.6,120.3,1320,120.8z
		 M1313.3,119.3h2.5c0.3,0,0.6,0,0.8-0.1c0.2,0,0.4-0.1,0.6-0.2c0.3-0.1,0.6-0.4,0.9-0.7c0.3-0.3,0.4-0.7,0.4-1.2
		c0-0.4-0.1-0.7-0.3-1.1s-0.5-0.6-0.9-0.8c-0.4-0.2-0.9-0.3-1.5-0.3h-2.5V119.3z M1318.4,124.7c0.5-0.2,0.8-0.5,1.1-0.9
		s0.4-0.8,0.4-1.2c0-0.5-0.1-0.9-0.4-1.3c-0.3-0.4-0.6-0.7-1.1-0.8c-0.6-0.3-1.3-0.4-2.2-0.4h-2.9v5h3.5
		C1317.3,125.1,1317.9,124.9,1318.4,124.7z"/>
	<path class="st6" d="M1335.1,125.9v-11.7h7.6v0.8h-6.8v4.6h5.3v0.8h-5.3v4.6h6.8v0.8H1335.1z"/>
	<path class="st6" d="M1382.9,121.3c0.3,0.5,0.5,0.9,0.5,1.4c0,0.4-0.1,0.9-0.3,1.3c-0.2,0.4-0.5,0.8-0.9,1.1
		c-0.8,0.6-1.8,0.9-2.9,0.9c-0.6,0-1.1-0.1-1.6-0.2c-0.5-0.2-1-0.4-1.3-0.7c-0.7-0.5-1.1-1.1-1.2-1.9l0.8-0.4c0,0.7,0.4,1.2,1,1.6
		c0.3,0.2,0.7,0.4,1.1,0.5s0.9,0.2,1.3,0.2c1,0,1.8-0.2,2.4-0.7c0.6-0.5,1-1,1-1.7c0-0.4-0.1-0.7-0.4-1s-0.6-0.6-1-0.8
		c-0.4-0.2-1.1-0.4-2.1-0.5c-0.1,0-0.4-0.1-0.9-0.1c-0.5-0.1-1-0.2-1.3-0.4c-0.6-0.3-1-0.7-1.4-1.1c-0.3-0.5-0.5-1-0.5-1.5
		c0-0.4,0.1-0.9,0.3-1.3c0.2-0.4,0.5-0.7,0.9-1c0.4-0.3,0.8-0.5,1.3-0.7c0.5-0.2,1-0.2,1.6-0.2c1.1,0,2.1,0.3,2.9,0.9
		c0.7,0.5,1.1,1.1,1.2,1.8l-0.8,0.4c0-0.3-0.1-0.6-0.3-0.9c-0.2-0.3-0.4-0.5-0.7-0.8c-0.3-0.2-0.7-0.4-1.1-0.5
		c-0.4-0.1-0.9-0.2-1.3-0.2s-0.9,0.1-1.3,0.2s-0.8,0.3-1.1,0.5c-0.3,0.2-0.6,0.5-0.7,0.8c-0.2,0.3-0.3,0.6-0.3,0.9
		c0,0.4,0.1,0.7,0.4,1.1c0.3,0.4,0.6,0.7,1,0.9c0.3,0.1,0.5,0.2,0.8,0.3c0.3,0.1,0.7,0.1,1.2,0.2c0.1,0,0.3,0,0.6,0.1
		c0.3,0,0.7,0.1,1,0.2c0.3,0.1,0.6,0.2,0.8,0.3C1382.1,120.5,1382.6,120.9,1382.9,121.3z"/>
	<path class="st6" d="M1407,114.2v0.8h-4.6v10.9h-0.8V115h-4.6v-0.8H1407z"/>
	<path class="st6" d="M1421.5,125.9v-11.7h0.8v11.7H1421.5z"/>
	<path class="st6" d="M1437.7,125.9v-11.7h0.8v10.9h6.6v0.8H1437.7z"/>
	<path class="st6" d="M1459.8,125.9v-11.7h0.8v10.9h6.6v0.8H1459.8z"/>
</g>
</svg>
