<svg xmlns="http://www.w3.org/2000/svg" viewBox="0 0 54.51 50.88"><defs><style>.cls-1{fill:#d1bb96;}.cls-2{fill:#333;}.cls-3{fill:#d35f00;}.cls-4{fill:#ffd300;}</style></defs><title>Asset 10</title><g id="Layer_2" data-name="Layer 2"><g id="Layer_1-2" data-name="Layer 1"><g id="New_Symbol" data-name="New Symbol"><g id="New_Symbol_2" data-name="New Symbol 2"><rect class="cls-1" width="54.51" height="50.88"/><path class="cls-2" d="M32.2,38.29C32.2,41.42,30,44,27.26,44s-4.94-2.54-4.94-5.67,2.21-5.67,4.94-5.67S32.2,35.16,32.2,38.29Z"/><path class="cls-2" d="M11.18,23.93a.42.42,0,0,0-.65.35h0a3.57,3.57,0,0,0,7.14,0h0a.42.42,0,0,0-.65-.35,5.55,5.55,0,0,1-5.84,0Z"/><path class="cls-2" d="M37.49,23.93a.42.42,0,0,0-.65.35h0a3.57,3.57,0,0,0,7.14,0h0a.42.42,0,0,0-.65-.35,5.55,5.55,0,0,1-5.84,0Z"/><path class="cls-3" d="M10.94,17a.74.74,0,0,1-.58-.27.76.76,0,0,1,.08-1.07A11.31,11.31,0,0,1,16.69,13a.76.76,0,1,1,.14,1.52,9.66,9.66,0,0,0-5.4,2.28A.76.76,0,0,1,10.94,17Z"/><path class="cls-3" d="M43.58,17a.77.77,0,0,1-.5-.18,9.76,9.76,0,0,0-5.4-2.28A.76.76,0,0,1,37.82,13a11.28,11.28,0,0,1,6.25,2.64.75.75,0,0,1,.08,1.07A.74.74,0,0,1,43.58,17Z"/><path class="cls-4" d="M53.24,17.52a1,1,0,0,1-.09.41.89.89,0,0,1-.23.34,1,1,0,0,1-.34.23,1.16,1.16,0,0,1-.42.08h-5a1.43,1.43,0,0,1-.48-.07,1,1,0,0,1-.38-.22,1.12,1.12,0,0,1-.24-.33,1,1,0,0,1-.08-.4,1.41,1.41,0,0,1,.13-.57,3.2,3.2,0,0,1,.29-.51c.62-.87,1.24-1.75,1.85-2.63l1.48-2.11h-2.6a1,1,0,0,1-.41-.08,1,1,0,0,1-.35-.22,1.24,1.24,0,0,1-.22-.34,1,1,0,0,1-.09-.42,1,1,0,0,1,.09-.42,1.11,1.11,0,0,1,.22-.34.93.93,0,0,1,.35-.23,1,1,0,0,1,.41-.09h4.8a2.14,2.14,0,0,1,.45.05,1.2,1.2,0,0,1,.4.16.9.9,0,0,1,.33.34,1,1,0,0,1,.12.49,1.32,1.32,0,0,1-.14.56,3,3,0,0,1-.28.49l-3.35,4.75h2.7a1.16,1.16,0,0,1,.42.08,1.2,1.2,0,0,1,.34.23,1,1,0,0,1,.23.35A1,1,0,0,1,53.24,17.52Z"/><path class="cls-4" d="M47.58,6.1a.58.58,0,0,1-.06.26.6.6,0,0,1-.36.36.58.58,0,0,1-.26.06H43.73a.94.94,0,0,1-.3,0,.72.72,0,0,1-.24-.14A.8.8,0,0,1,43,6.38a.56.56,0,0,1,0-.25,1,1,0,0,1,.08-.36,2,2,0,0,1,.18-.32l1.18-1.66.93-1.34H43.72a.65.65,0,0,1-.27-.05.6.6,0,0,1-.21-.14A.74.74,0,0,1,43.1,2a.59.59,0,0,1,0-.52.55.55,0,0,1,.14-.22.8.8,0,0,1,.21-.15.81.81,0,0,1,.27,0h3a1.2,1.2,0,0,1,.28,0,.67.67,0,0,1,.26.1.6.6,0,0,1,.21.21.66.66,0,0,1,.07.32.93.93,0,0,1-.08.35,3.14,3.14,0,0,1-.18.31l-2.12,3H46.9a.75.75,0,0,1,.26,0,.71.71,0,0,1,.22.15.64.64,0,0,1,.14.22A.58.58,0,0,1,47.58,6.1Z"/></g></g></g></g></svg>