<svg xmlns="http://www.w3.org/2000/svg" xmlns:xlink="http://www.w3.org/1999/xlink" viewBox="0 0 306.63 306.63"><defs><style>.cls-1{isolation:isolate;}.cls-2{fill:url(#ÕÓ_È_Ó·_ÁÂ_ËÂÌÚ_1);}.cls-3,.cls-6{fill:#fbd69e;}.cls-3,.cls-5{mix-blend-mode:multiply;}.cls-4{fill:#87594a;}.cls-7{fill:#4f74bf;}</style><radialGradient id="ÕÓ_È_Ó·_ÁÂ_ËÂÌÚ_1" cx="-1360.06" cy="326.95" r="76.65" gradientTransform="translate(846.16 2870.13) rotate(89.72) scale(2)" gradientUnits="userSpaceOnUse"><stop offset="0" stop-color="#fddb35"/><stop offset="0.48" stop-color="#fdd934"/><stop offset="0.66" stop-color="#fcd232"/><stop offset="0.78" stop-color="#fbc72e"/><stop offset="0.88" stop-color="#fab629"/><stop offset="0.96" stop-color="#f8a022"/><stop offset="1" stop-color="#f7941e"/></radialGradient></defs><title>Asset 12</title><g class="cls-1"><g id="Layer_2" data-name="Layer 2"><g id="_ÎÓÈ_1" data-name="—ÎÓÈ_1"><ellipse class="cls-2" cx="153.31" cy="153.31" rx="153.31" ry="153.31" transform="translate(-0.73 305.88) rotate(-89.72)"/><path class="cls-3" d="M306.63,153.32A153.32,153.32,0,0,1,63.46,277.54,163.83,163.83,0,0,0,303.13,132.37c0-4.92-.21-9.81-.66-14.63A153.38,153.38,0,0,1,306.63,153.32Z"/><path class="cls-4" d="M178.55,245.71c0,10.64-5.36,19.89-13.25,24.62a23.32,23.32,0,0,1-10.69,3.31c-.43,0-.86,0-1.3,0l-1.3,0a23.28,23.28,0,0,1-10.68-3.31c-7.89-4.73-13.25-14-13.25-24.62A25.32,25.32,0,0,1,130.75,234c4.15-8,12.7-12.36,22.56-12.36S171.73,226,175.87,234A25.32,25.32,0,0,1,178.55,245.71Z"/><g class="cls-5"><path class="cls-6" d="M178.45,92.86H153.31V88.07l16.28-18H154.3V65.19h23.22V70L161.24,88h17.21Z"/><path class="cls-6" d="M229.92,89.38H186V81l28.47-31.43H187.69V41h40.6v8.39L199.83,80.8h30.09Z"/><path class="cls-6" d="M278.69,106.42H247.74v-5.9l20-22.13H249v-6h28.59v5.91l-20,22.13h21.19Z"/></g><path class="cls-7" d="M178.45,89.8H153.31V85l16.28-18H154.3V62.12h23.22v4.8l-16.28,18h17.21Z"/><path class="cls-7" d="M229.92,86.32H186V77.93l28.47-31.42H187.69V37.92h40.6v8.39L199.83,77.73h30.09Z"/><path class="cls-7" d="M278.69,103.36H247.74V97.45l20-22.13H249v-6h28.59v5.9l-20,22.13h21.19Z"/><path class="cls-4" d="M92.46,159c-14.13,0-26.92-4.25-36.25-11.12a3.21,3.21,0,0,0-5,3.48C56,169,72.64,182,92.46,182s36.45-13,41.22-30.65a3.22,3.22,0,0,0-5-3.48C119.39,154.74,106.59,159,92.46,159Z"/><path class="cls-4" d="M214.16,159c14.13,0,26.93-4.25,36.25-11.12a3.22,3.22,0,0,1,5,3.48C250.61,169,234,182,214.16,182S177.71,169,173,151.35a3.21,3.21,0,0,1,5-3.48C187.24,154.74,200,159,214.16,159Z"/></g></g></g></svg>