<svg xmlns="http://www.w3.org/2000/svg" viewBox="0 0 54.58 50.88"><defs><style>.cls-1{fill:#5aac84;}.cls-2{fill:#fff;}.cls-3{fill:#333;}</style></defs><title>Asset 8</title><g id="Layer_2" data-name="Layer 2"><g id="Layer_1-2" data-name="Layer 1"><g id="New_Symbol" data-name="New Symbol"><g id="New_Symbol_2" data-name="New Symbol 2"><rect class="cls-1" x="0.05" width="54.51" height="50.88"/><rect class="cls-2" x="13.57" y="24.75" width="27.47" height="16.41" rx="2.58"/><polygon class="cls-2" points="54.58 25.97 54.58 23.08 29.51 34.57 54.58 34.95 54.58 32.31 40.34 32.1 54.58 25.97"/><polygon class="cls-2" points="0 23.07 0 25.95 14.26 32.1 0 32.31 0 34.95 25.1 34.57 0 23.07"/><path class="cls-3" d="M15.46,21.42a6.9,6.9,0,0,1-3.52-.94,1.32,1.32,0,0,1,1.35-2.27A4.44,4.44,0,0,0,18,18a1.33,1.33,0,0,1,1.85.28,1.31,1.31,0,0,1-.28,1.84A7,7,0,0,1,15.46,21.42Z"/><path class="cls-3" d="M38.53,21.42a7,7,0,0,1-4.13-1.33,1.31,1.31,0,0,1-.28-1.84A1.33,1.33,0,0,1,36,18a4.44,4.44,0,0,0,4.73.24,1.32,1.32,0,1,1,1.35,2.27A6.9,6.9,0,0,1,38.53,21.42Z"/></g></g></g></g></svg>