<svg xmlns="http://www.w3.org/2000/svg" xmlns:xlink="http://www.w3.org/1999/xlink" viewBox="0 0 306.63 306.63"><defs><style>.cls-1{isolation:isolate;}.cls-2{fill:url(#ÕÓ_È_Ó·_ÁÂ_ËÂÌÚ_1);}.cls-3{fill:#fbd69e;mix-blend-mode:multiply;}.cls-4{fill:#87594a;}</style><radialGradient id="ÕÓ_È_Ó·_ÁÂ_ËÂÌÚ_1" cx="-754.28" cy="328.68" r="76.65" gradientTransform="translate(840.37 1659.43) rotate(89.72) scale(2)" gradientUnits="userSpaceOnUse"><stop offset="0" stop-color="#fddb35"/><stop offset="0.48" stop-color="#fdd934"/><stop offset="0.66" stop-color="#fcd232"/><stop offset="0.78" stop-color="#fbc72e"/><stop offset="0.88" stop-color="#fab629"/><stop offset="0.96" stop-color="#f8a022"/><stop offset="1" stop-color="#f7941e"/></radialGradient></defs><title>Asset 1</title><g class="cls-1"><g id="Layer_2" data-name="Layer 2"><g id="_ÎÓÈ_1" data-name="—ÎÓÈ_1"><ellipse class="cls-2" cx="153.31" cy="153.31" rx="153.31" ry="153.31" transform="translate(-0.73 305.88) rotate(-89.72)"/><path class="cls-3" d="M306.63,153.32A153.32,153.32,0,0,1,63.46,277.54,163.83,163.83,0,0,0,303.13,132.37c0-4.92-.21-9.81-.66-14.63A153.38,153.38,0,0,1,306.63,153.32Z"/><path class="cls-4" d="M71.08,147.43a13.43,13.43,0,0,1,8.69,1c8.08,3.78,18,1.17,20,.84s12.29-1.06,18.73-7.25a13.46,13.46,0,0,1,7.89-3.77c2.94-.3,5.9.45,6.68,4.05a6.86,6.86,0,0,1-.81,4.86,41.23,41.23,0,0,1-29,20.51l-.85.14a41.25,41.25,0,0,1-34.1-10.12A6.92,6.92,0,0,1,66,153.35C65.65,149.73,68.21,148.08,71.08,147.43Z"/><path class="cls-4" d="M235.54,147.43a13.43,13.43,0,0,0-8.69,1c-8.08,3.78-18,1.17-20,.84s-12.29-1.06-18.72-7.25a13.51,13.51,0,0,0-7.9-3.77c-2.93-.3-5.9.45-6.68,4.05a7,7,0,0,0,.81,4.86,41.23,41.23,0,0,0,29,20.51l.86.14a41.26,41.26,0,0,0,34.1-10.12,6.92,6.92,0,0,0,2.33-4.38C241,149.73,238.41,148.08,235.54,147.43Z"/><path class="cls-4" d="M152.74,241.67h1.15a62.89,62.89,0,0,1,36.26,11.11c1.91,1.35,4.61-.3,3.92-2.43-6-18.51-21.77-31.74-40.32-31.74h-.87c-18.56,0-34.36,13.23-40.33,31.74-.69,2.13,2,3.78,3.92,2.43A62.94,62.94,0,0,1,152.74,241.67Z"/></g></g></g></svg>