<svg xmlns="http://www.w3.org/2000/svg" viewBox="0 0 54.51 50.88"><defs><style>.cls-1{fill:#3c3e79;}.cls-2{fill:#fff;}</style></defs><title>Asset 5</title><g id="Layer_2" data-name="Layer 2"><g id="Layer_1-2" data-name="Layer 1"><g id="New_Symbol" data-name="New Symbol"><g id="New_Symbol_2" data-name="New Symbol 2"><rect class="cls-1" width="54.51" height="50.88"/><path class="cls-2" d="M18.49,20.49a3.07,3.07,0,0,1-2.77,3.31,3.08,3.08,0,0,1-2.78-3.31,3.09,3.09,0,0,1,2.78-3.32A3.08,3.08,0,0,1,18.49,20.49Z"/><path class="cls-2" d="M40.64,23.83a.92.92,0,0,1-.6-.23c-1.79-1.66-4.39-.4-4.5-.35A.88.88,0,0,1,34.4,22a7.09,7.09,0,0,1,6.35-3.17.88.88,0,0,1-.12,1.76,5,5,0,0,0-2.41.42,5,5,0,0,1,3,1.3.88.88,0,0,1,0,1.25A.9.9,0,0,1,40.64,23.83Z"/><path class="cls-2" d="M29.11,43A13.28,13.28,0,0,1,21,40.24a1.33,1.33,0,1,1,1.63-2.09,10.59,10.59,0,0,0,17.08-8.7A1.33,1.33,0,0,1,41,28.09a1.35,1.35,0,0,1,1.36,1.28A13.25,13.25,0,0,1,29.51,43Z"/></g></g></g></g></svg>