<svg xmlns="http://www.w3.org/2000/svg" xmlns:xlink="http://www.w3.org/1999/xlink" viewBox="0 0 306.63 306.63"><defs><style>.cls-1{isolation:isolate;}.cls-2{fill:url(#ÕÓ_È_Ó·_ÁÂ_ËÂÌÚ_1);}.cls-3{fill:#fbd69e;mix-blend-mode:multiply;}.cls-4{fill:#87594a;}</style><radialGradient id="ÕÓ_È_Ó·_ÁÂ_ËÂÌÚ_1" cx="-1157.42" cy="-236.61" r="76.65" gradientTransform="translate(-287.39 2470.98) rotate(89.86) scale(2)" gradientUnits="userSpaceOnUse"><stop offset="0" stop-color="#fddb35"/><stop offset="0.48" stop-color="#fdd934"/><stop offset="0.66" stop-color="#fcd232"/><stop offset="0.78" stop-color="#fbc72e"/><stop offset="0.88" stop-color="#fab629"/><stop offset="0.96" stop-color="#f8a022"/><stop offset="1" stop-color="#f7941e"/></radialGradient></defs><title>Asset 9</title><g class="cls-1"><g id="Layer_2" data-name="Layer 2"><g id="_ÎÓÈ_1" data-name="—ÎÓÈ_1"><ellipse class="cls-2" cx="153.31" cy="153.31" rx="153.31" ry="153.31" transform="translate(-0.38 306.24) rotate(-89.86)"/><path class="cls-3" d="M306.63,153.32A153.32,153.32,0,0,1,63.46,277.54,163.83,163.83,0,0,0,303.13,132.37c0-4.92-.21-9.81-.66-14.63A153.38,153.38,0,0,1,306.63,153.32Z"/><path class="cls-3" d="M76.84,116.47a39.76,39.76,0,0,0-31.33,9.3c-3.26,2.77-8.11,3.75-11.48,1.36l-.12-.09c-3.36-2.36-3-8.57,1.75-12.67a54.79,54.79,0,0,1,43.21-12.82c6.22.84,9.91,5.85,8.38,9.66l0,.14C85.68,115.19,81.08,117,76.84,116.47Z"/><path class="cls-3" d="M241.62,118.28a39.75,39.75,0,0,1,29.47,14.13c2.78,3.25,7.41,5,11.12,3.15l.13-.07c3.69-1.8,4.31-8,.27-12.78A54.81,54.81,0,0,0,242,103.22c-6.27-.15-10.71,4.22-9.8,8.22l0,.15C233.09,115.62,237.34,118.14,241.62,118.28Z"/><path class="cls-4" d="M241.54,145.53c-9-.16-33.3.48-48.66,16-4.69,5.18,3.88,4.37,8.57,3.88,4.24-.43,19.88-1.46,24.89,4.62a19.82,19.82,0,0,0,1.22,2.1l0,0c.53,1.61,1.31,2.39,2.22,2.6a17,17,0,1,0,11.74-29.22Z"/><path class="cls-4" d="M98.13,145.53c-9-.16-33.31.48-48.66,16-4.69,5.18,3.88,4.37,8.56,3.88C62.28,165,77.92,164,82.93,170a16.88,16.88,0,0,0,1.22,2.1s0,0,0,0c.54,1.61,1.32,2.39,2.23,2.6a17,17,0,1,0,11.74-29.22Z"/><path class="cls-4" d="M152.74,240.25h1.15a62.89,62.89,0,0,1,36.26,11.11c1.91,1.35,4.61-.3,3.92-2.43-6-18.51-21.77-31.74-40.32-31.74h-.87c-18.56,0-34.36,13.23-40.33,31.74-.69,2.13,2,3.78,3.92,2.43A62.94,62.94,0,0,1,152.74,240.25Z"/></g></g></g></svg>