<svg xmlns="http://www.w3.org/2000/svg" viewBox="0 0 54.51 50.93"><defs><style>.cls-1{fill:#7d5057;}.cls-2{fill:#1a1a1a;}.cls-3{fill:#999;}.cls-4{fill:#333;}.cls-5{fill:#cc9200;}</style></defs><title>Asset 9</title><g id="Layer_2" data-name="Layer 2"><g id="Layer_1-2" data-name="Layer 1"><g id="New_Symbol" data-name="New Symbol"><g id="New_Symbol_2" data-name="New Symbol 2"><rect class="cls-1" width="54.51" height="50.88"/><path class="cls-2" d="M27.26,41.85h0a5.39,5.39,0,0,1-5.39-5.39V33.31a5.39,5.39,0,0,1,5.39-5.39h0a5.38,5.38,0,0,1,5.38,5.39v3.15A5.38,5.38,0,0,1,27.26,41.85Z"/><polygon class="cls-3" points="45.77 18.24 42.2 19.49 38.63 18.24 38.63 50.93 45.77 50.93 45.77 18.24"/><polygon class="cls-3" points="15.88 18.24 12.31 19.49 8.75 18.24 8.75 50.93 15.88 50.93 15.88 18.24"/><path class="cls-4" d="M9.4,17.68a.43.43,0,0,0-.65.35h0a3.57,3.57,0,1,0,7.13,0h0a.43.43,0,0,0-.65-.35,5.53,5.53,0,0,1-5.83,0Z"/><path class="cls-4" d="M39.28,17.68a.43.43,0,0,0-.65.35h0a3.57,3.57,0,1,0,7.14,0h0a.43.43,0,0,0-.65-.35,5.55,5.55,0,0,1-5.84,0Z"/><path class="cls-5" d="M44.75,14.24h-.14a10.09,10.09,0,0,1-6.69-4.39.88.88,0,1,1,1.51-.91,8.46,8.46,0,0,0,5.45,3.56.88.88,0,0,1-.13,1.75Z"/><path class="cls-5" d="M9.76,14.24a.87.87,0,0,1-.86-.74.88.88,0,0,1,.73-1,8.5,8.5,0,0,0,5.46-3.56.88.88,0,0,1,1.21-.3.89.89,0,0,1,.29,1.21A10.09,10.09,0,0,1,9.9,14.23Z"/></g></g></g></g></svg>