<?xml version="1.0" encoding="utf-8"?>
<!-- Generator: Adobe Illustrator 23.1.0, SVG Export Plug-In . SVG Version: 6.00 Build 0)  -->
<svg version="1.1" id="Layer_1" xmlns="http://www.w3.org/2000/svg" xmlns:xlink="http://www.w3.org/1999/xlink" x="0px" y="0px"
	 viewBox="0 0 500 500" style="enable-background:new 0 0 500 500;" xml:space="preserve">
<style type="text/css">
	.st0{fill:#FFFFFF;}
</style>
<path d="M402.4,211.1c-0.3,29.8-7.7,54.4-19.2,78c-15.8,32.4-37.5,60.6-61.7,86.9c-19.8,21.5-41.2,41.3-64.2,59.5
	c-6.2,4.9-9.2,4.9-15.2,0.1c-39.9-31.8-75.7-67.6-104.7-109.9c-16.8-24.5-30.6-50.6-36.8-80c-10.1-48.3,1.1-91.6,32.3-129.4
	c24.3-29.4,56-47,93.7-52.7c80.8-12.2,154.3,40.3,171.9,117.1c0.9,4,1.8,8,2.2,12.1C401.5,199.9,402,207.2,402.4,211.1z M246.4,79.7
	c-21.2,0.1-44.1,6.4-65.4,18.8c-50.7,29.4-76.6,90.9-62,147.5c6.9,26.8,20,50.7,35.7,73.1c26,37.2,57.8,68.8,92.6,97.7
	c2.2,1.9,3.4,0.8,5-0.5c21.8-17.9,42.3-37.3,61.1-58.3c22.8-25.5,42.9-52.8,56.9-84.2c11.8-26.4,17.1-53.7,11.9-82.7
	C370.7,126.7,315.1,79.8,246.4,79.7z"/>
<path d="M249.8,97.7c64.4,0.1,116.8,52.7,116.6,117.1c-0.2,64.2-52.6,116.5-117,116.4c-64.4-0.1-116.8-52.8-116.6-117.2
	C133.1,149.8,185.6,97.6,249.8,97.7z M348.7,217.3c-0.9-39.5-17-70.4-51.6-89.1c-37.1-20.1-74-17-107.8,8.4
	c-26.5,19.9-38.5,47.6-38.6,80.7c14.3,0,28,0,42,0c0-1.5,0-2.9,0-4.2c0-22.7,0-45.4,0-68.1c0-8.2,3.2-11.3,11.3-11.3
	c30.3,0,60.6,0,90.9,0c8.5,0,11.6,3,11.6,11.4c0,22.7,0,45.4,0,68.1c0,1.3,0,2.7,0,4.2C320.6,217.3,334.3,217.3,348.7,217.3z
	 M228.7,277.2c0-8.7,0-16.9,0-25.1c0-7.2,3.4-10.6,10.5-10.6c6.7,0,13.5,0,20.2,0c8.1,0,11.2,3.2,11.2,11.4c0,8.1,0,16.1,0,24.3
	c6.2,0,11.9,0,17.7,0c0-42,0-83.7,0-125.3c-25.9,0-51.6,0-77.3,0c0,41.9,0,83.6,0,125.4C216.9,277.2,222.6,277.2,228.7,277.2z
	 M194.3,295.4c16.6,12.1,35.2,17.8,55.5,17.9c19.8,0,48.4-9.3,55.2-17.9C268.1,295.4,231.2,295.4,194.3,295.4z M153.3,235.5
	c2.6,13.8,10.5,30.4,18.9,40.1c0.7,0.8,1.8,1.6,2.7,1.6c5.8,0.1,11.6,0.1,17.6,0.1c0-14.1,0-27.9,0-41.8
	C179.4,235.5,166.4,235.5,153.3,235.5z M306.7,277.3c6.1,0,11.9,0.1,17.8-0.1c1,0,2.3-1,2.9-1.9c4.6-7.5,9.4-15,13.3-22.8
	c2.6-5.2,3.9-11.1,5.8-16.9c-13.7,0-26.7,0-39.8,0C306.7,249.4,306.7,263.1,306.7,277.3z M252.3,277.2c0-6.2,0-12,0-17.6
	c-2,0-3.7,0-5.5,0c0,6,0,11.8,0,17.6C248.8,277.2,250.5,277.2,252.3,277.2z"/>
<path class="st0" d="M252.3,277.2c-1.8,0-3.5,0-5.5,0c0-5.9,0-11.6,0-17.6c1.8,0,3.5,0,5.5,0C252.3,265.2,252.3,271,252.3,277.2z"/>
<path d="M216.7,172.5c0-2.1-0.1-4.2,0-6.3c0.3-5,4.2-8.7,9-8.6c4.6,0,8.6,3.6,8.8,8.4c0.2,4.3,0.2,8.7,0,13
	c-0.2,4.8-4.1,8.4-8.8,8.4c-4.8,0.1-8.7-3.6-9-8.6C216.6,176.8,216.7,174.7,216.7,172.5z"/>
<path d="M258.6,172.7c0,2.1,0.1,4.2,0,6.3c-0.4,5-4.4,8.6-9.1,8.5c-4.6-0.1-8.5-3.8-8.7-8.6c-0.2-4.2-0.2-8.5,0-12.7
	c0.2-5,4.2-8.7,9-8.7c4.8,0,8.6,3.7,8.9,8.7C258.7,168.4,258.6,170.5,258.6,172.7C258.6,172.7,258.6,172.7,258.6,172.7z"/>
<path d="M264.6,172.1c0-2.1-0.2-4.2,0-6.3c0.4-4.7,4.4-8.3,9-8.2c4.5,0.1,8.5,3.5,8.7,8.1c0.3,4.6,0.3,9.2,0,13.8
	c-0.3,4.6-4.3,8-8.8,8c-4.6,0-8.6-3.5-9-8.3C264.5,176.9,264.6,174.5,264.6,172.1z"/>
<path d="M216.7,220.3c0-2.1-0.1-4.2,0-6.3c0.3-4.8,4.1-8.4,8.7-8.5c4.8-0.1,8.9,3.5,9.1,8.5c0.2,4.3,0.2,8.7,0,13
	c-0.3,4.8-4.2,8.3-8.9,8.3c-4.6,0-8.5-3.6-8.9-8.3C216.6,224.8,216.7,222.6,216.7,220.3z"/>
<path d="M258.6,220.4c0,2.2,0.2,4.5,0,6.7c-0.4,4.8-4.3,8.3-8.9,8.3c-4.6,0-8.6-3.6-8.9-8.4c-0.2-4.3-0.2-8.7,0-13
	c0.2-4.8,4.1-8.4,8.7-8.5c4.8-0.1,8.7,3.6,9.1,8.5C258.7,216.1,258.6,218.2,258.6,220.4C258.6,220.4,258.6,220.4,258.6,220.4z"/>
<path d="M264.6,220.3c0-2-0.1-4,0-6c0.3-5,4-8.8,8.8-8.8c4.8-0.1,8.8,3.6,9.1,8.6c0.2,4.2,0.2,8.5,0,12.7c-0.2,5-4.2,8.7-9,8.7
	c-4.8,0-8.6-3.7-8.9-8.7C264.5,224.5,264.6,222.4,264.6,220.3z"/>
<path d="M168.8,256.4c0-2.1-0.1-4.2,0-6.3c0.3-5,4.2-8.7,9-8.7c4.8,0,8.7,3.7,8.9,8.7c0.2,4.2,0.2,8.5,0,12.7
	c-0.3,5-4.3,8.6-9.1,8.5c-4.6-0.1-8.4-3.7-8.7-8.6C168.7,260.7,168.8,258.5,168.8,256.4z"/>
<path d="M330.4,256.3c0,2.2,0.2,4.5,0,6.7c-0.4,4.8-4.3,8.3-9,8.3c-4.6,0-8.6-3.6-8.8-8.4c-0.2-4.3-0.2-8.7,0-13
	c0.2-4.8,4.1-8.4,8.8-8.4c4.8-0.1,8.7,3.6,9,8.6C330.6,252.1,330.4,254.2,330.4,256.3C330.4,256.3,330.4,256.3,330.4,256.3z"/>
</svg>
