<svg xmlns="http://www.w3.org/2000/svg" viewBox="0 0 54.51 50.88"><defs><style>.cls-1{fill:#ffc000;}.cls-2{fill:#333;}</style></defs><title>Asset 4</title><g id="Layer_2" data-name="Layer 2"><g id="Layer_1-2" data-name="Layer 1"><g id="New_Symbol" data-name="New Symbol"><g id="New_Symbol_2" data-name="New Symbol 2"><rect class="cls-1" width="54.51" height="50.88"/><path class="cls-2" d="M42.91,22a.43.43,0,0,0,.65-.36h0a3.57,3.57,0,0,0-7.14,0h0a.43.43,0,0,0,.65.36,5.55,5.55,0,0,1,5.84,0Z"/><path class="cls-2" d="M17.44,22a.43.43,0,0,0,.65-.36h0a3.57,3.57,0,0,0-7.14,0h0a.43.43,0,0,0,.65.36,5.55,5.55,0,0,1,5.84,0Z"/><path class="cls-2" d="M27.4,37.75A18.19,18.19,0,0,1,15.13,33,1.32,1.32,0,1,1,16.93,31a15.48,15.48,0,0,0,20.68.24,1.32,1.32,0,0,1,1.75,2A18,18,0,0,1,27.4,37.75Z"/></g></g></g></g></svg>