<svg xmlns="http://www.w3.org/2000/svg" xmlns:xlink="http://www.w3.org/1999/xlink" viewBox="0 0 306.63 306.63"><defs><style>.cls-1{mask:url(#mask);filter:url(#luminosity-noclip-3);}.cls-2,.cls-4,.cls-7{mix-blend-mode:multiply;}.cls-2{fill:url(#radial-gradient);}.cls-3{mask:url(#mask-2);filter:url(#luminosity-noclip-4);}.cls-4{fill:url(#radial-gradient-2);}.cls-5{isolation:isolate;}.cls-6{fill:url(#ÕÓ_È_Ó·_ÁÂ_ËÂÌÚ_1);}.cls-7{fill:#fbd69e;}.cls-8{mask:url(#mask-3);}.cls-11,.cls-9{mix-blend-mode:darken;}.cls-9{fill:url(#radial-gradient-3);}.cls-10{mask:url(#mask-4);}.cls-11{fill:url(#radial-gradient-4);}.cls-12{fill:#87594a;}.cls-13{filter:url(#luminosity-noclip-2);}.cls-14{filter:url(#luminosity-noclip);}</style><filter id="luminosity-noclip" x="6.69" y="-9093.89" width="97.87" height="32766" filterUnits="userSpaceOnUse" color-interpolation-filters="sRGB"><feFlood flood-color="#fff" result="bg"/><feBlend in="SourceGraphic" in2="bg"/></filter><mask id="mask" x="6.69" y="-9093.89" width="97.87" height="32766" maskUnits="userSpaceOnUse"><g class="cls-14"/></mask><radialGradient id="radial-gradient" cx="-803.55" cy="543.22" r="24.47" gradientTransform="translate(1662.74 -901.89) scale(2)" gradientUnits="userSpaceOnUse"><stop offset="0" stop-color="#fff"/><stop offset="0.18" stop-color="#fcfcfc"/><stop offset="0.31" stop-color="#f3f3f3"/><stop offset="0.43" stop-color="#e3e3e3"/><stop offset="0.54" stop-color="#ccc"/><stop offset="0.64" stop-color="#afafaf"/><stop offset="0.74" stop-color="#8b8b8b"/><stop offset="0.83" stop-color="#616161"/><stop offset="0.92" stop-color="#313131"/><stop offset="1"/></radialGradient><filter id="luminosity-noclip-2" x="202.06" y="-9093.89" width="97.87" height="32766" filterUnits="userSpaceOnUse" color-interpolation-filters="sRGB"><feFlood flood-color="#fff" result="bg"/><feBlend in="SourceGraphic" in2="bg"/></filter><mask id="mask-2" x="202.06" y="-9093.89" width="97.87" height="32766" maskUnits="userSpaceOnUse"><g class="cls-13"/></mask><radialGradient id="radial-gradient-2" cx="-3145.57" cy="543.22" r="24.47" gradientTransform="matrix(-2, 0, 0, 2, -6040.15, -901.89)" xlink:href="#radial-gradient"/><radialGradient id="ÕÓ_È_Ó·_ÁÂ_ËÂÌÚ_1" cx="-754.28" cy="516.39" r="76.65" gradientTransform="translate(1215.87 1657.56) rotate(89.72) scale(2)" gradientUnits="userSpaceOnUse"><stop offset="0" stop-color="#fddb35"/><stop offset="0.48" stop-color="#fdd934"/><stop offset="0.66" stop-color="#fcd232"/><stop offset="0.78" stop-color="#fbc72e"/><stop offset="0.88" stop-color="#fab629"/><stop offset="0.96" stop-color="#f8a022"/><stop offset="1" stop-color="#f7941e"/></radialGradient><filter id="luminosity-noclip-3" x="6.69" y="135.61" width="97.87" height="97.87" filterUnits="userSpaceOnUse" color-interpolation-filters="sRGB"><feFlood flood-color="#fff" result="bg"/><feBlend in="SourceGraphic" in2="bg"/></filter><mask id="mask-3" x="6.69" y="135.61" width="97.87" height="97.87" maskUnits="userSpaceOnUse"><g class="cls-1"><circle class="cls-2" cx="55.63" cy="184.55" r="48.94"/></g></mask><radialGradient id="radial-gradient-3" cx="-803.55" cy="543.22" r="24.47" gradientTransform="translate(1662.74 -901.89) scale(2)" gradientUnits="userSpaceOnUse"><stop offset="0" stop-color="#ffa482"/><stop offset="0.31" stop-color="#ffa67f"/><stop offset="0.54" stop-color="#ffac76"/><stop offset="0.74" stop-color="#ffb566"/><stop offset="0.93" stop-color="#ffc34f"/><stop offset="1" stop-color="#ffca44"/></radialGradient><filter id="luminosity-noclip-4" x="202.06" y="135.61" width="97.87" height="97.87" filterUnits="userSpaceOnUse" color-interpolation-filters="sRGB"><feFlood flood-color="#fff" result="bg"/><feBlend in="SourceGraphic" in2="bg"/></filter><mask id="mask-4" x="202.06" y="135.61" width="97.87" height="97.87" maskUnits="userSpaceOnUse"><g class="cls-3"><circle class="cls-4" cx="250.99" cy="184.55" r="48.94"/></g></mask><radialGradient id="radial-gradient-4" cx="-3145.57" cy="543.22" r="24.47" gradientTransform="matrix(-2, 0, 0, 2, -6040.15, -901.89)" xlink:href="#radial-gradient-3"/></defs><title>Asset 3</title><g class="cls-5"><g id="Layer_2" data-name="Layer 2"><g id="_ÎÓÈ_1" data-name="—ÎÓÈ_1"><ellipse class="cls-6" cx="153.31" cy="153.31" rx="153.31" ry="153.31" transform="translate(-0.74 305.87) rotate(-89.72)"/><path class="cls-7" d="M306.63,153.32A153.32,153.32,0,0,1,63.46,277.54,163.83,163.83,0,0,0,303.13,132.37c0-4.92-.21-9.81-.66-14.63A153.38,153.38,0,0,1,306.63,153.32Z"/><path class="cls-7" d="M103,105a39.72,39.72,0,0,0-31,10.19c-3.18,2.86-8,4-11.43,1.69l-.12-.09c-3.43-2.26-3.25-8.48,1.38-12.71A54.8,54.8,0,0,1,104.57,90c6.24.66,10.07,5.57,8.65,9.42l0,.14C111.77,103.48,107.22,105.44,103,105Z"/><path class="cls-7" d="M203.66,105a39.71,39.71,0,0,1,31.05,10.19c3.18,2.86,8,4,11.43,1.69l.13-.09c3.42-2.26,3.24-8.48-1.39-12.71A54.78,54.78,0,0,0,202.05,90c-6.23.66-10.07,5.57-8.65,9.42l0,.14C194.86,103.48,199.4,105.44,203.66,105Z"/><g class="cls-8"><circle class="cls-9" cx="55.63" cy="184.55" r="48.94"/></g><g class="cls-10"><circle class="cls-11" cx="250.99" cy="184.55" r="48.94"/></g><path class="cls-12" d="M130.11,157a11.07,11.07,0,0,1-7.79-1.19c-7.3-3.91-16.17-1.48-17.95-1.19s-11,.85-16.63,6.9a11,11,0,0,1-7,3.63c-2.62.25-5.29-.56-6-4.15a7.49,7.49,0,0,1,.64-4.83c5.29-10.52,14.38-18.1,25.6-20l.76-.13c11.23-1.85,22.29,2.42,30.68,10.69a7.43,7.43,0,0,1,2.16,4.4C134.93,154.75,132.67,156.35,130.11,157Z"/><path class="cls-12" d="M176.51,157a11.06,11.06,0,0,0,7.79-1.19c7.3-3.91,16.17-1.48,18-1.19s11,.85,16.62,6.9a11.05,11.05,0,0,0,7,3.63c2.62.25,5.28-.56,6.05-4.15a7.43,7.43,0,0,0-.65-4.83c-5.28-10.52-14.37-18.1-25.59-20l-.76-.13c-11.24-1.85-22.29,2.42-30.68,10.69a7.38,7.38,0,0,0-2.16,4.4C171.69,154.75,174,156.35,176.51,157Z"/><path class="cls-12" d="M153.94,224.26h-1.25A65.13,65.13,0,0,1,113,211a2.73,2.73,0,0,0-4.3,2.9c6.54,22,23.84,37.73,44.16,37.73h.95c20.32,0,37.62-15.72,44.15-37.73a2.72,2.72,0,0,0-4.29-2.9A65.18,65.18,0,0,1,153.94,224.26Z"/></g></g></g></svg>